<?xml version="1.0" standalone="no"?>
<!DOCTYPE svg PUBLIC "-//W3C//DTD SVG 20010904//EN"
 "http://www.w3.org/TR/2001/REC-SVG-20010904/DTD/svg10.dtd">
<svg version="1.0" xmlns="http://www.w3.org/2000/svg"
 width="512.000000pt" height="512.000000pt" viewBox="0 0 512.000000 512.000000"
 preserveAspectRatio="xMidYMid meet">
<metadata>
Created by potrace 1.14, written by Peter Selinger 2001-2017
</metadata>
<g transform="translate(0.000000,512.000000) scale(0.100000,-0.100000)"
fill="#000000" stroke="none">
<path d="M1282 2564 c-700 -1400 -1272 -2548 -1270 -2549 2 -2 42 29 89 68 47
40 105 88 129 107 24 19 100 82 169 139 69 57 146 120 170 140 25 20 72 59
105 86 70 58 220 181 426 350 80 66 150 124 156 130 6 5 27 22 46 37 19 15 81
66 139 114 57 47 122 101 144 119 59 49 184 151 234 193 24 21 86 71 136 112
51 41 178 146 283 232 l191 157 88 -65 c48 -35 95 -70 103 -77 8 -7 49 -36 90
-66 41 -30 77 -57 80 -60 3 -4 39 -31 80 -61 96 -70 664 -491 957 -709 78 -58
152 -114 165 -123 12 -9 116 -86 229 -170 113 -84 221 -164 240 -178 19 -13
39 -28 44 -32 6 -5 53 -40 105 -79 52 -39 106 -79 120 -89 162 -122 376 -278
378 -275 4 4 -2542 5095 -2548 5095 -3 0 -578 -1146 -1278 -2546z"/>
</g>
</svg>
