<svg width="20" height="20" viewBox="0 0 20 20" fill="none" xmlns="http://www.w3.org/2000/svg">
<g clip-path="url(#clip0_117_4805)">
<path d="M7.8594 1.48438C7.43362 1.59766 7.12893 1.77344 6.7969 2.10938C6.27346 2.62891 6.09377 3.11719 6.09377 4.01172V4.53125H4.08987C2.21877 4.53125 2.06252 4.53516 1.78127 4.60938C1.33987 4.72266 1.03909 4.89453 0.699243 5.23438C0.480493 5.44922 0.363305 5.60547 0.257837 5.82031C-0.00778839 6.37109 2.41127e-05 6.125 2.41127e-05 11.5859C2.41127e-05 16.3633 0.00393036 16.5195 0.0781491 16.8125C0.19143 17.2539 0.363305 17.5547 0.703149 17.8906C1.03909 18.2305 1.33987 18.4023 1.78127 18.5156C2.07815 18.5938 2.24221 18.5938 10 18.5938C17.7578 18.5938 17.9219 18.5938 18.2188 18.5156C18.6602 18.4023 18.961 18.2305 19.2969 17.8906C19.6367 17.5547 19.8086 17.2539 19.9219 16.8125C19.9961 16.5195 20 16.3633 20 11.5625C20 6.76172 19.9961 6.60547 19.9219 6.3125C19.8125 5.87891 19.6328 5.57422 19.2969 5.23047C19.0781 5.01172 18.9297 4.89453 18.711 4.78906C18.2031 4.54297 18.1055 4.53125 15.8906 4.53125H13.9063V4.01172C13.9063 3.11719 13.7266 2.62891 13.2031 2.10938C12.8672 1.76953 12.5664 1.59766 12.125 1.48438C11.8438 1.41016 11.6914 1.40625 9.9844 1.41016C8.3008 1.41016 8.12112 1.41797 7.8594 1.48438ZM11.9649 3.08203C12.0469 3.13281 12.1602 3.24609 12.2188 3.33203C12.3164 3.48047 12.3242 3.52344 12.336 4.01172L12.3516 4.53125H10.0039H7.65627V4.08984C7.65627 3.85156 7.6758 3.58594 7.69924 3.50391C7.75002 3.32031 7.99612 3.0625 8.1719 3.01172C8.25002 2.98828 9.01565 2.97656 10.0586 2.98047L11.8164 2.98828L11.9649 3.08203ZM17.8125 6.12109C17.8125 6.13281 17.4336 6.94141 16.9688 7.91016C16.0742 9.78906 15.9492 10 15.5547 10.2891C15.2735 10.4922 14.9141 10.6602 14.6172 10.7266C14.4297 10.7656 14.0664 10.7812 13.3516 10.7812H12.3516L12.336 10.2617C12.3242 9.77344 12.3164 9.73047 12.2188 9.58203C12.1602 9.49609 12.0469 9.38281 11.9649 9.33203L11.8164 9.23828H9.99612H8.17971L8.01955 9.34375C7.93362 9.40234 7.82034 9.51562 7.76955 9.59766C7.68362 9.73047 7.6758 9.80078 7.66409 10.2617L7.64846 10.7812H6.64846C5.51174 10.7812 5.28127 10.75 4.85549 10.5352C4.50784 10.3555 4.23831 10.1445 4.03127 9.875C3.92581 9.73438 3.56252 9.02344 3.02737 7.90625C2.56643 6.94141 2.18752 6.14062 2.18752 6.12109C2.18752 6.10547 5.70315 6.09375 10 6.09375C14.2969 6.09375 17.8125 6.10547 17.8125 6.12109ZM2.01565 9.41406C2.53127 10.5 2.65237 10.6953 3.08596 11.1367C3.64065 11.7031 4.17581 12.0156 4.9219 12.2188C5.27346 12.3125 5.35549 12.3203 6.54299 12.3359L7.79299 12.3516L7.9258 12.6328C8.1133 13.0195 8.5469 13.4492 8.94534 13.6484C9.63674 13.9844 10.3633 13.9844 11.0547 13.6484C11.4531 13.4492 11.8867 13.0195 12.0742 12.6328L12.2071 12.3516L13.4571 12.3359C14.6446 12.3203 14.7266 12.3125 15.0781 12.2188C15.8281 12.0156 16.4375 11.6562 16.961 11.0977C17.3477 10.6875 17.5196 10.4023 18.0313 9.32031L18.418 8.50391L18.4297 12.4219C18.4336 15.082 18.4258 16.3867 18.3985 16.4922C18.3438 16.6914 18.0977 16.9375 17.8985 16.9922C17.7891 17.0195 15.3477 17.0273 9.91409 17.0234L2.08596 17.0117L1.92581 16.9062C1.83987 16.8477 1.72659 16.7344 1.67581 16.6523L1.58206 16.5039L1.57424 12.5C1.56643 10.0977 1.57815 8.51953 1.59768 8.55469C1.61721 8.58984 1.80471 8.97656 2.01565 9.41406ZM10.7735 11.2969C10.7617 11.7617 10.7539 11.832 10.668 11.9648C10.6172 12.0469 10.5039 12.1602 10.418 12.2188C10.2852 12.3086 10.2149 12.3242 10 12.3242C9.78518 12.3242 9.71487 12.3086 9.58205 12.2188C9.49612 12.1602 9.38284 12.0469 9.33205 11.9648C9.24612 11.832 9.2383 11.7617 9.22659 11.2969L9.21096 10.7812H10H10.7891L10.7735 11.2969Z" fill="#A0A0A0"/>
</g>
<defs>
<clipPath id="clip0_117_4805">
<rect width="20" height="20" fill="white"/>
</clipPath>
</defs>
</svg>
