<svg width="40" height="40" viewBox="0 0 40 40" fill="none" xmlns="http://www.w3.org/2000/svg">
<path d="M38 11.4552C25.831 5.4237 14.533 5.81274 5.91328 10.839M2 28.5448C14.169 34.5763 25.467 34.1873 34.0867 29.161M3.01408 15.979C3.01408 12.6478 5.73821 9.94738 9.09859 9.94738C12.459 9.94738 15.1831 12.6478 15.1831 15.979C15.1831 19.3101 12.459 22.0105 9.09859 22.0105C5.73821 22.0105 3.01408 19.3101 3.01408 15.979ZM36.9859 24.021C36.9859 27.3522 34.2618 30.0526 30.9014 30.0526C27.541 30.0526 24.8169 27.3522 24.8169 24.021C24.8169 20.6899 27.541 17.9895 30.9014 17.9895C34.2618 17.9895 36.9859 20.6899 36.9859 24.021Z" stroke="black" stroke-width="3"/>
</svg>
