<svg width="40" height="40" viewBox="0 0 40 40" fill="none" xmlns="http://www.w3.org/2000/svg">
<path d="M2 3C11.12 3 10.16 8.42029 10.16 23.2029C10.16 8.42029 14.96 3 16.88 3C18.32 3 21.2 5.56232 21.2 15.8116C21.2 20.8842 22.3287 24.3346 23.9009 26.6522M23.9009 26.6522C26.2995 30.188 29.7304 31.087 31.76 31.087C35.12 31.087 38 28.1304 38 24.6812C38 21.2319 34.64 18.2754 31.76 18.2754C28.88 18.2754 26.1218 20.7391 23.9009 26.6522ZM23.9009 26.6522C23.6406 28.4589 22.544 32.5652 20.24 34.5362C17.936 36.5072 14.16 37 12.56 37" stroke="black" stroke-width="3"/>
</svg>
