<svg width="20" height="20" viewBox="0 0 20 20" fill="none" xmlns="http://www.w3.org/2000/svg">
<path d="M9.06641 0.0429688C7.16797 0.210938 5.20312 1.01562 3.69141 2.24609C3.24609 2.60547 2.54297 3.31641 2.19141 3.75781C1.29688 4.87891 0.5625 6.39453 0.257812 7.75391C0.0664062 8.60547 0.0234375 9.02344 0.0234375 10C0.0234375 10.9766 0.0664062 11.3945 0.257812 12.2461C0.566406 13.6328 1.32031 15.1719 2.24609 16.3086C2.60547 16.7539 3.31641 17.457 3.75781 17.8086C4.87891 18.7031 6.39453 19.4375 7.75391 19.7422C8.60547 19.9336 9.02344 19.9766 10 19.9766C10.9766 19.9766 11.3945 19.9336 12.2461 19.7422C13.2656 19.5156 14.6016 18.9453 15.4805 18.3633C17 17.3516 18.168 16.0234 18.9688 14.3945C19.6133 13.0781 19.9297 11.8242 19.9883 10.3594C20.0781 8.02344 19.332 5.73828 17.8594 3.82812C17.5312 3.40234 16.5977 2.46875 16.1719 2.14062C14.1094 0.550781 11.625 -0.183594 9.06641 0.0429688ZM10.9766 1.48438C12.9219 1.71875 14.6836 2.57422 16.0547 3.94531C17.4258 5.31641 18.2812 7.07812 18.5156 9.02344C18.5664 9.45312 18.5664 10.5547 18.5156 10.9766C18.0195 14.9609 14.9609 18.0195 10.9766 18.5156C10.5547 18.5664 9.45312 18.5664 9.02344 18.5156C7.07812 18.2812 5.31641 17.4258 3.94531 16.0547C2.57422 14.6836 1.71875 12.9219 1.48438 10.9766C1.43359 10.5508 1.43359 9.44922 1.48438 9.02344C1.71875 7.07812 2.57422 5.31641 3.94531 3.94531C5.29688 2.59375 7.06641 1.72656 8.96484 1.48828C9.35547 1.44141 10.5859 1.4375 10.9766 1.48438Z" fill="#A0A0A0"/>
<path d="M14.6484 5.82421C14.5742 5.86718 13.0117 7.40233 11.1836 9.23046L7.85156 12.5586L6.63281 11.3398C5.96094 10.6719 5.35547 10.0976 5.28516 10.0625C5.04297 9.9414 4.72266 9.99608 4.51953 10.1875C4.35547 10.3437 4.29688 10.4805 4.29688 10.7148C4.29688 10.8789 4.32031 10.9609 4.41016 11.0976C4.5625 11.3281 7.36719 14.1133 7.53906 14.2031C7.72656 14.3008 8.04297 14.293 8.21094 14.1875C8.28125 14.1406 9.97656 12.4648 11.9766 10.4609C14.9453 7.48827 15.625 6.78905 15.6641 6.66405C15.7656 6.35155 15.625 5.99218 15.3359 5.8164C15.168 5.71483 14.8281 5.71483 14.6484 5.82421Z" fill="#A0A0A0"/>
</svg>
