<svg width="45" height="45" viewBox="0 0 45 45" fill="none" xmlns="http://www.w3.org/2000/svg">
<path d="M20.3462 0.0969238C16.0835 0.536377 12.0581 2.16235 8.62158 4.81665C7.646 5.56372 5.56299 7.64673 4.81592 8.62231C3.42725 10.4065 2.1001 12.7883 1.35303 14.8098C0.939942 15.9348 0.412598 18.0354 0.210449 19.3801C-0.0180664 20.8567 -0.0180664 24.135 0.210449 25.6204C0.412598 26.9475 0.939942 29.0569 1.36182 30.1995C2.10889 32.2297 3.42725 34.594 4.81592 36.3782C5.52783 37.301 7.54053 39.3313 8.43701 40.0432C10.2563 41.4758 12.7261 42.8733 14.8003 43.6379C15.9429 44.0598 18.0522 44.5872 19.3794 44.7893C20.6802 44.9827 24.0552 45.0178 25.2681 44.842C29.4605 44.2356 32.8091 42.8557 36.2105 40.3069C37.1685 39.595 39.2778 37.5295 40.0425 36.5627C41.4575 34.761 42.8901 32.2385 43.6372 30.1995C44.0591 29.0569 44.5864 26.9475 44.7886 25.6204C44.9116 24.8293 44.9468 24.0471 44.9468 22.5002C44.9468 20.1184 44.8325 19.1077 44.2964 16.9983C43.8745 15.3284 43.479 14.2737 42.6704 12.6126C40.9478 9.07056 38.2759 6.02954 34.936 3.78833C32.1323 1.90747 29.1265 0.756104 25.6636 0.219971C24.5562 0.0529785 21.4712 -0.026123 20.3462 0.0969238ZM25.4438 2.85669C28.0103 3.26099 30.4976 4.15747 32.6948 5.46704C33.4507 5.92407 35.3579 7.30396 35.4722 7.47974C35.5073 7.54126 34.5054 8.60474 33.1519 9.96704C31.8511 11.2766 30.7173 12.4719 30.6382 12.6301C30.2954 13.3157 30.5064 13.7376 31.895 15.1526C33.0815 16.3655 33.2134 16.5764 33.0991 17.1829C33.0288 17.5344 32.7651 17.886 32.4312 18.0618C32.1323 18.22 31.5347 18.2376 31.2622 18.0969C31.1567 18.0442 30.5591 17.4905 29.9263 16.8752C28.6606 15.6272 28.3882 15.4778 27.729 15.6536C27.4302 15.7327 26.9907 16.137 24.9341 18.176L22.4995 20.6106L20.6362 18.7473L18.773 16.884L19.4937 16.1458C20.0122 15.6096 20.2935 15.2317 20.4956 14.801C20.7681 14.2209 20.7856 14.1418 20.7856 13.1751C20.7856 12.1819 20.7769 12.1467 20.4605 11.5051C19.4321 9.42212 17.1118 8.65747 15.02 9.71216C14.7739 9.83521 14.2642 10.2395 13.8774 10.6086L13.1743 11.2854L11.3286 9.4397C10.3179 8.42896 9.4917 7.57642 9.4917 7.54126C9.4917 7.5061 9.8169 7.22485 10.2212 6.91724C13.1128 4.66724 16.5142 3.23462 19.9507 2.81274C20.3638 2.7688 20.8384 2.70728 21.0054 2.6897C21.6382 2.6106 24.6001 2.72485 25.4438 2.85669ZM10.019 11.9006C12.0581 13.9309 12.4976 14.3264 12.814 14.4231C13.4819 14.6165 13.7544 14.467 15.1079 13.1399C16.3647 11.9182 16.5757 11.7864 17.1821 11.9006C17.5337 11.971 17.8853 12.2346 18.061 12.5686C18.2192 12.8674 18.2368 13.4651 18.0962 13.7376C18.0435 13.843 17.4897 14.4407 16.8745 15.0735C15.6265 16.3391 15.4771 16.6116 15.6528 17.2708C15.7319 17.5696 16.1362 18.009 18.1753 20.0657L20.6099 22.5002L18.7466 24.3635L16.8833 26.2268L16.145 25.5061C15.6089 24.9876 15.231 24.7063 14.8003 24.5042C14.2202 24.2317 14.1411 24.2141 13.1743 24.2141C12.1812 24.2141 12.146 24.2229 11.5044 24.5393C10.397 25.0842 9.65869 25.9719 9.35986 27.1145C8.98193 28.5647 9.37744 29.8391 10.6079 31.1223L11.2847 31.8254L9.43897 33.6711C8.42822 34.6819 7.57568 35.5081 7.54053 35.5081C7.45264 35.5081 6.43311 34.1809 5.85303 33.3108C5.229 32.3792 4.13916 30.1819 3.77881 29.136C2.979 26.8157 2.68897 25.0667 2.68897 22.5002C2.68897 19.9338 2.979 18.1848 3.77881 15.8645C4.13916 14.8186 5.229 12.6213 5.85303 11.6897C6.42432 10.8284 7.45264 9.49244 7.54053 9.49244C7.57568 9.49244 8.68311 10.5735 10.019 11.9006ZM38.0825 10.2131C39.8491 12.4895 41.1323 15.1086 41.7739 17.7629C42.2046 19.5295 42.3101 20.4788 42.3101 22.5002C42.3101 24.5217 42.2046 25.4709 41.7739 27.2376C41.1235 29.9358 39.77 32.678 37.9683 34.928L37.4146 35.6311L34.9888 33.1526C32.9058 31.0256 32.5103 30.6653 32.1939 30.5774C31.5171 30.384 31.2358 30.5422 29.8911 31.8606C28.6343 33.0823 28.4233 33.2141 27.8169 33.0999C27.4653 33.0295 27.1138 32.7659 26.938 32.4319C26.7798 32.1331 26.7622 31.5354 26.9028 31.2629C26.9556 31.1575 27.5093 30.551 28.1245 29.927C29.3726 28.6614 29.522 28.3889 29.3462 27.7297C29.2671 27.4309 28.8628 26.9915 26.8237 24.9348L24.3892 22.5002L26.2524 20.637L28.1157 18.7737L28.854 19.4944C29.3901 20.0129 29.7681 20.2942 30.1987 20.4963C30.7788 20.7688 30.8579 20.7864 31.8247 20.7864C32.8179 20.7864 32.853 20.7776 33.4946 20.4612C35.5513 19.4417 36.3423 17.1301 35.314 15.0911C35.1733 14.801 34.769 14.2737 34.3911 13.8782L33.7144 13.1751L35.5601 11.3293C36.5708 10.3186 37.4233 9.49244 37.4585 9.49244C37.4937 9.49244 37.7749 9.81763 38.0825 10.2131ZM24.3892 26.2795L26.2261 28.1165L25.5054 28.8547C24.9868 29.3909 24.7056 29.7688 24.5034 30.1995C24.231 30.7795 24.2134 30.8586 24.2134 31.8254C24.2134 32.8098 24.2222 32.8538 24.5386 33.4954C25.3999 35.2268 27.2368 36.1057 29.0298 35.6399C29.8296 35.429 30.3657 35.1126 31.1216 34.3918L31.8247 33.7151L33.6704 35.5608C34.6812 36.5715 35.5073 37.4241 35.5073 37.4592C35.5073 37.5471 34.189 38.5667 33.3101 39.1467C32.3872 39.762 30.1987 40.8518 29.1353 41.2209C22.5962 43.4885 15.4771 42.2756 10.0718 37.969L9.36865 37.4153L11.8384 34.9895C13.9653 32.9065 14.3345 32.511 14.4224 32.1858C14.6157 31.5178 14.4575 31.2366 13.1392 29.8918C11.9175 28.635 11.7856 28.4241 11.8999 27.8176C11.9702 27.4661 12.2339 27.1145 12.5679 26.9387C12.8667 26.7805 13.4644 26.7629 13.7368 26.9036C13.8423 26.9563 14.4487 27.51 15.0728 28.1252C16.3384 29.3733 16.6108 29.5227 17.27 29.3469C17.5688 29.2678 18.0083 28.8723 20.0386 26.842C21.3657 25.5149 22.4731 24.4338 22.4995 24.4338C22.5259 24.4338 23.3696 25.26 24.3892 26.2795Z" fill="white"/>
</svg>
