<svg width="20" height="16" viewBox="0 0 20 16" fill="none" xmlns="http://www.w3.org/2000/svg">
<path d="M17.5585 0.389893H2.44569C1.09663 0.389893 0 1.48652 0 2.83558V13.1646C0 14.5136 1.09663 15.6103 2.44569 15.6103H17.5543C18.9034 15.6103 20 14.5136 20 13.1646V2.83972C20.0041 1.49066 18.9075 0.389893 17.5585 0.389893ZM18.8868 13.1646C18.8868 13.897 18.2909 14.4929 17.5585 14.4929H2.44569C1.71322 14.4929 1.11732 13.897 1.11732 13.1646V2.83972C1.11732 2.10725 1.71322 1.51135 2.44569 1.51135H17.5543C18.2868 1.51135 18.8827 2.10725 18.8827 2.83972V13.1646H18.8868Z" fill="#939CC0" fill-opacity="0.5"/>
<path d="M12.6137 7.87194L17.5051 3.48543C17.7327 3.27851 17.7534 2.92677 17.5465 2.69503C17.3396 2.46742 16.9878 2.44673 16.7561 2.65364L10.0108 8.70785L8.69486 7.5326C8.69072 7.52846 8.68658 7.52433 8.68658 7.52019C8.65761 7.49122 8.62864 7.46639 8.59554 7.44156L3.24069 2.64951C3.00895 2.4426 2.6572 2.46329 2.45029 2.69503C2.24338 2.92677 2.26407 3.27851 2.49581 3.48543L7.44511 7.90918L2.5165 12.5233C2.29303 12.7343 2.28062 13.0861 2.49167 13.3137C2.6034 13.4296 2.75238 13.4916 2.90135 13.4916C3.03791 13.4916 3.17448 13.442 3.28207 13.3427L8.28517 8.66233L9.64251 9.87483C9.7501 9.97001 9.88252 10.0155 10.0149 10.0155C10.1474 10.0155 10.2839 9.96587 10.3874 9.87069L11.782 8.62095L16.7561 13.3468C16.8637 13.4503 17.0044 13.4999 17.141 13.4999C17.2899 13.4999 17.4348 13.442 17.5465 13.3261C17.7575 13.1026 17.7493 12.7468 17.5258 12.5357L12.6137 7.87194Z" fill="#939CC0" fill-opacity="0.5"/>
</svg>
