<svg width="21" height="21" viewBox="0 0 21 21" fill="none" xmlns="http://www.w3.org/2000/svg">
<path d="M18.2977 2.71228C17.8316 2.26471 17.249 2.04092 16.5499 2.04092C16.532 2.04092 16.4782 2.0454 16.3886 2.05435C16.3079 2.05435 16.2362 2.05882 16.1735 2.06778C15.4296 2.17519 14.7663 2.51087 14.1837 3.07481C13.4846 3.75512 13.1351 4.53836 13.1351 5.42455C13.1351 6.14067 13.3547 6.72698 13.7939 7.1835C14.242 7.64003 14.8246 7.86829 15.5416 7.86829H15.7567C15.8105 7.85933 15.8508 7.85486 15.8777 7.85486C16.6485 7.7743 17.3342 7.43414 17.9347 6.8344C18.4994 6.27046 18.8399 5.60358 18.9565 4.83376C18.9654 4.74425 18.9699 4.66368 18.9699 4.59207C18.9789 4.52046 18.9834 4.46228 18.9834 4.41752C18.9834 3.76407 18.7548 3.19565 18.2977 2.71228ZM7.1927 13.8165C6.9507 13.5838 6.67734 13.4137 6.3726 13.3063C6.06786 13.1899 5.72279 13.1317 5.33739 13.1317C4.52177 13.1317 3.7644 13.4808 3.0653 14.179C2.37516 14.8683 2.03009 15.6471 2.03009 16.5153C2.03009 17.2583 2.25416 17.8536 2.7023 18.3012C3.15045 18.7487 3.72855 18.9725 4.43662 18.9725C4.58003 18.9725 4.68758 18.968 4.75928 18.9591C5.54802 18.8606 6.23816 18.516 6.82971 17.9252C7.15237 17.6029 7.40333 17.2673 7.58259 16.9182C7.76184 16.5691 7.85147 16.1976 7.85147 15.8037C7.85147 15.3651 7.80218 14.9891 7.70359 14.6758C7.61396 14.3536 7.44366 14.0671 7.1927 13.8165ZM13.4712 9.18414L9.18246 13.4808C9.65749 14.2685 9.89501 15.1279 9.89501 16.0588C9.89501 17.4194 9.41101 18.5831 8.44302 19.5499C7.48399 20.5166 6.31882 21 4.9475 21C3.57618 21 2.40653 20.5211 1.43854 19.5633C0.479514 18.5965 0 17.4284 0 16.0588C0 14.6803 0.479514 13.5121 1.43854 12.5543C2.40653 11.5876 3.58067 11.1042 4.96095 11.1042C5.8662 11.1042 6.72215 11.3459 7.52881 11.8293L11.8175 7.53261C11.3425 6.73593 11.105 5.8766 11.105 4.9546C11.105 3.58504 11.589 2.41688 12.557 1.45013C13.525 0.483376 14.6946 0 16.0659 0C17.4014 0 18.5576 0.483376 19.5346 1.45013C20.5115 2.40793 21 3.57609 21 4.9546C21 6.33312 20.516 7.50128 19.548 8.45908C18.589 9.41688 17.4283 9.89578 16.0659 9.89578C15.5999 9.89578 15.1517 9.8376 14.7215 9.72123C14.2913 9.60486 13.8745 9.42583 13.4712 9.18414Z" fill="white"/>
</svg>
