<svg width="20" height="20" viewBox="0 0 20 20" fill="none" xmlns="http://www.w3.org/2000/svg">
<path d="M5.02329 0.742226C3.12485 0.980507 1.52719 2.13285 0.652193 3.88676C-0.425932 6.04691 -0.132963 8.63285 1.39438 10.5079C1.72251 10.9102 9.57797 19.1719 9.67172 19.2149C9.72641 19.2383 9.83969 19.2696 9.92172 19.2813C10.2811 19.3399 10.0858 19.5274 14.4217 14.9493C16.6288 12.625 18.5077 10.625 18.6053 10.5079C20.3241 8.40238 20.4569 5.43754 18.9334 3.18363C18.0741 1.9141 16.7889 1.06644 15.3084 0.796913C14.7616 0.695351 13.8514 0.707069 13.3202 0.816444C12.1092 1.07035 11.242 1.55473 10.3241 2.49223L10.0038 2.82035L9.58188 2.39457C8.7186 1.5391 7.80844 1.04301 6.68735 0.816444C6.25766 0.730507 5.41782 0.691444 5.02329 0.742226ZM6.64047 2.26566C7.02719 2.36723 7.58188 2.61723 7.93344 2.8516C8.07407 2.94535 8.49594 3.33598 8.88657 3.73441C9.60532 4.46488 9.74594 4.57035 10.0077 4.57035C10.2655 4.56644 10.4334 4.44144 11.035 3.80863C11.8514 2.95316 12.2889 2.63676 13.0389 2.36723C13.9803 2.03129 15.16 2.08988 16.0819 2.52348C16.8788 2.90238 17.6561 3.67582 18.0858 4.53129C18.9569 6.25394 18.6756 8.33207 17.3788 9.74613C17.242 9.89457 15.5233 11.711 13.5663 13.7774L9.99985 17.5391L6.45688 13.7969C2.22641 9.33598 2.46469 9.59379 2.19516 9.18363C0.702974 6.9141 1.49204 3.75004 3.84751 2.57035C4.18735 2.39848 4.42172 2.31644 4.8436 2.22269C5.30063 2.12113 6.16001 2.14066 6.64047 2.26566Z" fill="#A0A0A0"/>
</svg>
