<svg width="20" height="20" viewBox="0 0 20 20" fill="none" xmlns="http://www.w3.org/2000/svg">
<g clip-path="url(#clip0_117_4789)">
<path d="M9.70754 0.0742188C9.59816 0.125 8.09426 1.60938 4.81691 4.88672C-0.151835 9.86719 0.000508565 9.70312 0.000508565 10.0234C0.000508565 10.1641 0.191915 10.4844 0.33254 10.582C0.496602 10.6914 0.762227 10.7305 0.949727 10.668C1.02395 10.6406 1.16848 10.5508 1.26613 10.4648L1.44582 10.3047V14.875C1.44582 18.0195 1.45754 19.4805 1.48879 19.5586C1.54738 19.7148 1.67629 19.8438 1.85598 19.9258C2.00441 19.9961 2.31691 20 10.0005 20C17.6841 20 17.9966 19.9961 18.145 19.9258C18.3247 19.8438 18.4536 19.7148 18.5122 19.5586C18.5435 19.4805 18.5552 18.0195 18.5552 14.8789V10.3125L18.77 10.4844C19.0825 10.7383 19.3872 10.7695 19.6724 10.5781C19.813 10.4844 20.0005 10.1602 20.0005 10.0234C20.0005 9.70312 20.1528 9.86719 15.1841 4.88672C11.9068 1.60938 10.4029 0.125 10.2935 0.0742188C10.2075 0.0351562 10.0747 0 10.0005 0C9.92629 0 9.79348 0.0351562 9.70754 0.0742188ZM13.5825 5.32031L17.1489 8.88672V13.7188V18.5547H15.3521H13.5552V15.2461V11.9414L13.4614 11.7812C13.4107 11.6914 13.2974 11.582 13.2114 11.5312L13.0552 11.4453H10.0005H6.94582L6.78957 11.5312C6.70363 11.582 6.59035 11.6914 6.53957 11.7812L6.44582 11.9414V15.2461V18.5547H4.64895H2.85207V13.7227V8.88672L6.41457 5.32422C8.37551 3.36328 9.98879 1.75781 10.0005 1.75781C10.0122 1.75781 11.6255 3.36328 13.5825 5.32031ZM12.1489 15.7031V18.5547H10.0005H7.85207V15.7031V12.8516H10.0005H12.1489V15.7031Z" fill="#A0A0A0"/>
</g>
<defs>
<clipPath id="clip0_117_4789">
<rect width="20" height="20" fill="white"/>
</clipPath>
</defs>
</svg>
