<svg width="45" height="45" viewBox="0 0 45 45" fill="none" xmlns="http://www.w3.org/2000/svg">
<g clip-path="url(#clip0_117_7650)">
<path d="M20.8304 0.0615234C15.9173 0.527344 11.9886 2.08301 8.37632 5.00098C3.85874 8.63086 0.984716 13.7812 0.167333 19.6875C0.0179192 20.7598 0.00913009 24.2139 0.158544 25.2686C0.896825 30.4805 3.05893 34.8662 6.66245 38.4609C8.57847 40.377 10.7582 41.8799 13.2279 42.9961C14.3089 43.4883 15.3285 43.8574 15.5921 43.8574C16.1195 43.8574 16.4095 43.1719 16.0316 42.8027C15.9437 42.7148 15.39 42.46 14.8099 42.2314C8.48179 39.7617 3.63022 34.2773 1.97788 27.7295C1.49448 25.8047 1.37143 24.7236 1.37143 22.5C1.37143 20.2764 1.49448 19.1953 1.97788 17.2705C3.47202 11.3291 7.62046 6.23145 13.14 3.51562C14.6605 2.76855 15.7767 2.35547 17.2708 1.97754C19.1957 1.49414 20.2767 1.37109 22.5003 1.37109C23.9769 1.37109 24.7416 1.40625 25.5326 1.5293C26.8773 1.74023 28.6351 2.17969 29.7513 2.59277C30.973 3.04102 32.9242 4.0166 33.9701 4.69336C35.1214 5.44922 35.5521 5.45801 35.7279 4.72852C35.807 4.40332 35.4642 4.06934 34.3656 3.38379C30.7181 1.13379 26.5345 -0.0351562 22.2806 0.0175781C21.6566 0.0263672 20.9974 0.0439453 20.8304 0.0615234Z" fill="white"/>
<path d="M24.4336 3.55078L24.0732 4.02539L23.1591 4.06055C22.0781 4.0957 22.0605 4.10449 21.5771 5.09766C21.3925 5.48438 21.208 5.80078 21.1816 5.80078C21.1552 5.80078 20.9707 5.48438 20.7861 5.09766C20.5927 4.70215 20.3642 4.32422 20.2851 4.24512C20.0742 4.05176 19.6435 4.06055 19.4238 4.2627C19.0986 4.56152 19.1953 4.93945 19.9863 6.45996C20.5664 7.57617 20.7597 7.88379 20.9443 7.94531C21.4365 8.12109 21.5947 7.96289 22.2978 6.60938L22.957 5.35254L23.4492 5.37891L23.9414 5.40527L24.1875 6.15234C24.6445 7.58496 24.4599 8.17383 23.6601 7.76953C23.4228 7.65527 23.3437 7.65527 23.1416 7.75195C23.0097 7.81348 22.8427 7.97168 22.7636 8.10352C22.6494 8.32324 22.6494 8.37598 22.7636 8.58691C22.9394 8.90332 23.581 9.22852 24.038 9.22852C24.5039 9.22852 25.1015 8.9209 25.4355 8.49902C25.6992 8.17383 25.708 8.12109 25.708 7.35645C25.708 6.6709 25.664 6.41602 25.4179 5.68652L25.1191 4.83398L25.4355 4.40332C25.9629 3.68262 25.8134 3.07617 25.1103 3.07617C24.8291 3.07617 24.75 3.12891 24.4336 3.55078Z" fill="white"/>
<path d="M13.8518 4.96559C12.7268 5.61598 12.551 5.8357 12.7795 6.29274C12.9553 6.66188 13.2717 6.75856 13.676 6.5652C13.843 6.48609 13.9748 6.44215 13.9748 6.46852C13.9748 6.50367 13.887 6.82887 13.7903 7.2068C13.6057 7.86598 13.5969 7.88356 13.3245 7.89234C12.9993 7.90113 12.7444 8.17359 12.7444 8.53395C12.7444 8.77125 12.9553 9.07887 13.1663 9.14918C13.2278 9.17555 13.1663 9.51832 13.008 10.1072C12.8674 10.617 12.7532 11.1179 12.7444 11.2322C12.7356 11.7244 13.1926 12.0408 13.6321 11.865C13.9221 11.742 13.9748 11.6189 14.2825 10.45C14.5198 9.54469 14.5286 9.51832 14.7747 9.51832C15.1262 9.51832 15.3811 9.26344 15.3811 8.90309C15.3811 8.63063 15.135 8.26149 14.9504 8.26149C14.8801 8.26149 15.1702 6.97828 15.2581 6.86402C15.2756 6.84645 15.3899 6.9607 15.5129 7.11012C15.8206 7.47047 16.2512 7.48805 16.5149 7.15406C16.6204 7.02223 16.6995 6.83766 16.6995 6.74098C16.6995 6.50367 15.5745 4.58766 15.3811 4.48219C15.0735 4.3152 14.8098 4.40309 13.8518 4.96559Z" fill="white"/>
<path d="M28.9336 4.86068C28.6523 5.1595 28.6963 5.44954 29.127 6.31087C29.6631 7.37435 29.7158 7.41829 30.5772 7.35677L31.2627 7.31283L31.5088 7.83138C31.9307 8.71029 31.9922 8.73665 33.1524 8.65755C33.6973 8.6224 34.207 8.56087 34.2862 8.51693C34.5147 8.40267 34.6465 7.98079 34.5498 7.70833C34.418 7.35677 34.1543 7.26888 33.4248 7.32161L32.7744 7.36556L32.4756 6.7679C32.3086 6.43392 32.0801 6.11751 31.9746 6.05599C31.8516 5.99447 31.5527 5.9681 31.1397 6.00325L30.4893 6.0472L30.1904 5.44954C30.0234 5.11556 29.8037 4.79915 29.7158 4.74642C29.4346 4.60579 29.1357 4.64095 28.9336 4.86068Z" fill="white"/>
<path d="M37.0903 6.24022C36.7211 6.60936 36.8354 6.87303 37.8198 7.89256C40.8784 11.1006 42.7856 15.0205 43.4799 19.5117C43.5942 20.25 43.6294 21.0498 43.6294 22.5C43.6294 24.7236 43.5063 25.8047 43.0229 27.7295C41.1508 35.165 35.1655 41.1504 27.7299 43.0224C25.7788 43.5146 24.7329 43.6289 22.4565 43.6289C20.9536 43.6289 20.1977 43.5849 19.5122 43.4707C17.9389 43.207 17.9038 43.207 17.6665 43.4004C17.3852 43.6289 17.3676 44.165 17.6401 44.3848C17.9829 44.6572 20.5932 44.9912 22.4565 45C30.0766 45.0088 37.1342 41.1855 41.3618 34.7519C45.4663 28.5205 46.1342 20.3379 43.1108 13.4912C41.977 10.9424 40.5356 8.78905 38.6635 6.87303C37.9692 6.16991 37.8286 6.06444 37.5649 6.06444C37.3803 6.06444 37.1958 6.13475 37.0903 6.24022Z" fill="white"/>
<path d="M27.6152 7.14574C27.334 7.44457 27.3779 7.73461 27.8086 8.59593C28.3447 9.6682 28.4063 9.70335 29.25 9.64183L29.9443 9.5891L30.1992 10.1252C30.5947 10.9602 30.709 11.0129 31.8164 10.9426C32.3262 10.9162 32.8096 10.8635 32.8975 10.8459C33.1172 10.7756 33.3281 10.3274 33.2578 10.0637C33.1611 9.6682 32.8623 9.54515 32.1152 9.60668L31.4561 9.65062L31.1572 9.05296C30.9902 8.71898 30.7617 8.40257 30.6563 8.34105C30.5332 8.27953 30.2344 8.25316 29.8213 8.28832L29.1709 8.33226L28.8721 7.73461C28.7051 7.40062 28.4854 7.08421 28.3975 7.03148C28.1162 6.89085 27.8174 6.92601 27.6152 7.14574Z" fill="white"/>
<path d="M7.73482 10.1953C7.37447 10.5557 7.47994 10.7842 8.66646 12.1729C9.86178 13.5703 10.0288 13.8076 9.95846 14.0625C9.87935 14.3525 9.66842 14.335 9.07076 13.9834C7.1108 12.8496 6.44283 12.7441 5.66939 13.4561C4.99263 14.0801 4.50044 15.75 4.88716 16.0928C5.27388 16.4268 8.35885 18.123 8.57857 18.123C8.85982 18.123 9.22896 17.7539 9.22896 17.4814C9.22896 17.1914 8.82467 16.875 7.44478 16.084C6.21431 15.3896 6.144 15.3369 6.19673 15.126C6.23189 14.9941 6.31978 14.7744 6.40767 14.6338C6.63619 14.2471 6.94381 14.2998 8.14791 14.9678C8.7192 15.2842 9.30807 15.5654 9.46627 15.6006C9.80904 15.6709 10.3628 15.5215 10.6704 15.2842C11.2505 14.8271 11.4438 13.8164 11.0835 13.1133C10.9253 12.7969 8.81588 10.2568 8.56978 10.0898C8.394 9.95801 7.9106 10.0195 7.73482 10.1953Z" fill="white"/>
<path d="M21.2256 10.5993C19.7227 10.8278 18.2285 11.2673 17.1387 11.821C14.3437 13.2272 12.1025 15.8376 11.127 18.8434C10.7402 20.0124 10.8545 20.4782 11.5312 20.4782C11.9443 20.4782 12.0586 20.3288 12.3486 19.3796C12.8496 17.7272 13.7549 16.2331 14.9941 14.9938C18.3076 11.6804 23.2207 10.9333 27.4131 13.0954C29.3291 14.0886 30.9199 15.6794 31.8955 17.5778C32.8008 19.3356 33.082 20.5222 33.082 22.4997C33.082 24.4772 32.8008 25.6638 31.8955 27.4216C30.9199 29.32 29.3203 30.9196 27.4219 31.8952C25.6641 32.8005 24.4775 33.0817 22.5 33.0817C20.5225 33.0817 19.3359 32.8005 17.5781 31.8952C16.5674 31.3766 15.8115 30.8141 14.9678 29.9528C14.1064 29.0915 13.623 28.4235 13.0957 27.4128C12.3398 25.945 11.8652 24.1608 11.8652 22.7546C11.8652 22.3854 11.8213 22.2184 11.6895 22.0778C11.4434 21.8141 10.9687 21.8229 10.7139 22.0778C10.5381 22.2624 10.5293 22.3415 10.582 23.1589C10.8281 27.4655 13.333 31.2624 17.1914 33.2048C17.9473 33.5827 19.3799 34.0661 20.2852 34.2507C21.375 34.4704 23.6689 34.4616 24.7412 34.2419C28.0195 33.5651 30.7793 31.693 32.5371 28.9597C33.3457 27.7116 33.9521 26.1911 34.251 24.7145C34.4619 23.6598 34.4619 21.3395 34.251 20.2848C34.0664 19.3796 33.583 17.947 33.2051 17.1911C31.5352 13.8688 28.3799 11.4694 24.7676 10.7663C24.0645 10.6257 21.7617 10.5202 21.2256 10.5993Z" fill="white"/>
<path d="M37.5469 10.6348C37.4326 10.6876 37.2744 10.8897 37.169 11.1358C36.9756 11.5928 36.5977 12.129 36.4746 12.129C36.4307 12.129 36.3076 11.9708 36.2022 11.7862C35.9736 11.3731 35.6397 11.2061 35.3057 11.3292C34.8662 11.4961 34.7783 11.9444 35.0859 12.4893C35.1914 12.6739 35.2441 12.8585 35.209 12.8936C35.1738 12.9376 34.7695 12.9639 34.3213 12.9639C33.3721 12.9639 33.1348 13.087 33.1348 13.5879C33.1348 14.2911 34.3037 14.5108 35.8154 14.0977C35.9561 14.0626 36.044 14.1504 36.2813 14.5547L36.5625 15.0557L36.1231 15.5215C35.6221 16.0489 35.2441 16.7696 35.2441 17.2002C35.2441 17.6836 35.6924 17.9649 36.167 17.7891C36.2461 17.754 36.4395 17.4727 36.5977 17.1475C36.7647 16.8311 36.9756 16.4971 37.0723 16.4092C37.2393 16.251 37.2481 16.2598 37.4502 16.585C37.7139 17.0157 37.8633 17.1299 38.1709 17.1387C38.4434 17.1387 38.8477 16.796 38.8477 16.5674C38.8477 16.4883 38.751 16.2335 38.6279 16.0049C38.3643 15.4776 38.3818 15.4688 39.4629 15.4688C40.2012 15.4688 40.2539 15.46 40.4209 15.2403C40.6582 14.9327 40.6494 14.7393 40.3945 14.4405C40.1924 14.212 40.1309 14.1944 39.4014 14.168C38.9268 14.1504 38.4434 14.1856 38.1621 14.2647L37.7051 14.3877L37.4414 13.9307C37.292 13.6758 37.1777 13.4385 37.1777 13.4034C37.1777 13.3682 37.3535 13.1397 37.5732 12.9024C37.9863 12.4629 38.4961 11.5225 38.4961 11.1973C38.4961 10.7754 37.9688 10.4678 37.5469 10.6348Z" fill="white"/>
<path d="M22.1221 13.3066C21.8673 13.5 21.797 13.9395 21.797 15.3457V16.6816L21.4278 16.7344C21.2169 16.7695 20.8477 16.8662 20.6016 16.9541L20.1446 17.1035L19.4063 15.8291C18.5889 14.4141 18.3956 14.2207 17.9561 14.4053C17.6485 14.5283 17.4552 14.8799 17.543 15.1523C17.5782 15.249 17.9122 15.873 18.2989 16.541L18.9932 17.7363L18.3692 18.3691L17.7364 18.9932L16.4268 18.2285C15.4161 17.6484 15.0645 17.4814 14.9063 17.5254C14.4493 17.6396 14.212 18.1318 14.4405 18.4834C14.5108 18.5977 15.1436 19.0195 15.8468 19.4238C16.963 20.0566 17.1212 20.1797 17.0421 20.3115C16.9981 20.3994 16.8839 20.7773 16.796 21.1553L16.6378 21.8408L15.047 21.8848C13.588 21.9287 13.4473 21.9463 13.3243 22.1045C13.1573 22.3242 13.1485 22.667 13.3067 22.8691C13.5089 23.1416 13.878 23.2031 15.2843 23.2031H16.6641L16.7784 23.748C16.8399 24.0557 16.9454 24.4248 17.0069 24.5742L17.1212 24.8467L15.8292 25.5938C14.4141 26.4111 14.2208 26.6045 14.4054 27.0439C14.5284 27.3516 14.88 27.5449 15.1524 27.457C15.2491 27.4219 15.8731 27.0879 16.5411 26.7012L17.7364 26.0068L18.3692 26.6309L18.9932 27.2637L18.2286 28.5732C17.6485 29.584 17.4815 29.9355 17.5255 30.0938C17.6397 30.5508 18.1319 30.7881 18.4835 30.5596C18.5977 30.4893 19.0108 29.8564 19.4151 29.1621L20.1446 27.8965L20.5929 28.0459C20.8477 28.1338 21.2169 28.2305 21.4278 28.2656L21.797 28.3184V29.6543C21.797 31.4209 21.92 31.8076 22.5001 31.8076C23.0802 31.8076 23.2032 31.4209 23.2032 29.6543V28.3184L23.5811 28.2656C23.7833 28.2305 24.1524 28.1338 24.3985 28.0459L24.8555 27.8965L25.5938 29.1709C26.4112 30.5859 26.6046 30.7793 27.044 30.5947C27.3516 30.4717 27.545 30.1201 27.4571 29.8477C27.422 29.751 27.088 29.127 26.7013 28.459L26.0069 27.2637L26.6309 26.6309L27.2638 26.0068L28.4591 26.7012C29.127 27.0879 29.7511 27.4219 29.8477 27.457C30.1202 27.5449 30.4718 27.3516 30.5948 27.0439C30.7794 26.6045 30.586 26.4111 29.171 25.5938L27.8966 24.8555L28.046 24.3984C28.1339 24.1523 28.2305 23.7832 28.2657 23.5723L28.3184 23.2031H29.7071C31.1222 23.2031 31.4913 23.1416 31.6934 22.8691C31.8516 22.667 31.8429 22.3242 31.6759 22.1045C31.5528 21.9463 31.4122 21.9287 29.9532 21.8848L28.3624 21.8408L28.2042 21.1553C28.1163 20.7773 28.002 20.3994 27.9581 20.3115C27.879 20.1797 28.0372 20.0566 29.1534 19.4238C29.8565 19.0195 30.4893 18.5977 30.5597 18.4834C30.7882 18.1318 30.5509 17.6396 30.1026 17.5254C29.9356 17.4814 29.5225 17.6836 28.2745 18.4043C27.3868 18.9229 26.587 19.415 26.4991 19.5117C26.3145 19.7139 26.3497 19.96 26.6837 20.7422C26.8155 21.0586 26.9649 21.6299 27.0089 22.0342C27.088 22.6582 27.0792 22.8428 26.9122 23.502C26.4815 25.251 25.295 26.4639 23.5899 26.8945C22.7374 27.1143 22.2628 27.1143 21.4102 26.8945C19.7403 26.4727 18.5274 25.2598 18.1055 23.5898C17.8858 22.7373 17.8858 22.2627 18.1055 21.4102C18.5538 19.6523 19.8634 18.4131 21.6827 18.0439C22.5528 17.8594 23.379 17.9473 24.2579 18.3252C25.0753 18.668 25.3126 18.6943 25.5411 18.4395C25.752 18.2109 27.3692 15.4336 27.4571 15.1523C27.545 14.8799 27.3516 14.5283 27.044 14.4053C26.6046 14.2207 26.4112 14.4141 25.5938 15.8291L24.8555 17.1035L24.3985 16.9541C24.1524 16.8662 23.7833 16.7695 23.5811 16.7344L23.2032 16.6816V15.3457C23.2032 13.5791 23.0802 13.1924 22.5001 13.1924C22.377 13.1924 22.21 13.2451 22.1221 13.3066Z" fill="white"/>
<path d="M7.49707 19.1162C7.35645 19.1777 7.20703 19.292 7.17187 19.3799C7.14551 19.459 7.11914 20.8389 7.11914 22.4473C7.11914 25.2686 7.12793 25.374 7.29492 25.5586C7.41797 25.6816 7.58496 25.752 7.77832 25.752C7.97168 25.752 8.13867 25.6816 8.26172 25.5586C8.42871 25.374 8.4375 25.2686 8.4375 22.4297C8.4375 20.6895 8.40234 19.4326 8.34961 19.3359C8.21777 19.0899 7.81348 18.9844 7.49707 19.1162Z" fill="white"/>
<path d="M4.6582 19.4414C4.52637 19.582 4.48242 19.7578 4.48242 20.1182C4.47363 20.6016 4.47363 20.6104 4.0957 20.8389C2.90039 21.5684 2.90039 23.4316 4.0957 24.1611C4.47363 24.3896 4.47363 24.3984 4.48242 24.8818C4.48242 25.4795 4.68457 25.752 5.1416 25.752C5.67774 25.752 5.80078 25.5146 5.80078 24.4863C5.79199 23.4492 5.73926 23.335 5.1416 23.1504C4.67578 23.0098 4.49121 22.8252 4.49121 22.5C4.49121 22.1748 4.67578 21.9902 5.1416 21.8496C5.73926 21.665 5.79199 21.5508 5.80078 20.5137C5.80078 19.749 5.77442 19.6084 5.625 19.4414C5.37891 19.1777 4.9043 19.1777 4.6582 19.4414Z" fill="white"/>
<path d="M39.2966 19.4328C39.0857 19.6613 39.0593 20.0041 39.2351 20.2414C39.2966 20.3205 39.5427 20.4523 39.7712 20.5139C40.2283 20.6545 40.4216 20.8566 40.4216 21.1818C40.4216 21.7619 40.0525 21.885 38.365 21.885H37.0115L36.8357 22.1135C36.5984 22.4211 36.6072 22.6145 36.8621 22.9133L37.073 23.1594L38.6199 23.2033C40.0261 23.2473 40.1667 23.2648 40.2898 23.4231C40.4568 23.6428 40.4656 23.9856 40.3074 24.1965C40.2371 24.2844 39.9998 24.4162 39.7712 24.4865C39.5427 24.5481 39.2966 24.6799 39.2351 24.759C39.0593 24.9963 39.0857 25.3391 39.2966 25.5676C39.4636 25.7434 39.5515 25.7697 39.9998 25.7346C40.9314 25.6643 41.6521 24.926 41.7312 23.9416C41.7664 23.5549 41.7224 23.3791 41.5291 22.9836L41.3005 22.5002L41.5291 22.0168C41.7224 21.6213 41.7664 21.4455 41.7312 21.0588C41.6521 20.0744 40.9314 19.3361 39.9998 19.2658C39.5515 19.2307 39.4636 19.257 39.2966 19.4328Z" fill="white"/>
<path d="M8.32416 26.9214C8.1308 26.9829 7.98139 27.1851 7.59467 27.9673L7.10248 28.9429L6.03021 28.8814C5.01947 28.8286 4.93158 28.8374 4.71186 29.0132C4.41303 29.2505 4.39545 29.69 4.68549 29.9448C4.8349 30.0943 5.04584 30.1382 5.67865 30.1909L6.46967 30.2525L6.31146 30.7007C6.22357 30.982 6.16205 31.4214 6.15326 31.8169C6.15326 32.6694 6.38178 33.1616 7.12006 33.9527C7.90228 34.7964 7.77045 34.8228 10.1787 33.4253C11.9365 32.397 12.1122 32.1948 11.664 31.6763C11.33 31.2984 11.0839 31.3599 9.56342 32.2476C8.80756 32.687 8.14838 33.0474 8.09564 33.0474C8.0517 33.0474 7.8935 32.8804 7.74408 32.6782C7.51557 32.3706 7.47162 32.23 7.47162 31.8257C7.47162 31.5269 7.55072 31.1402 7.67377 30.8501L7.86713 30.3667L9.0185 30.4019L10.1699 30.4282L10.3544 30.1909C10.6005 29.8745 10.6005 29.69 10.3369 29.3823C10.1435 29.1626 10.0644 29.1363 9.44037 29.1099C9.05365 29.0923 8.6933 29.0659 8.63178 29.0484C8.55268 29.022 8.62299 28.8023 8.87787 28.3013C9.07123 27.9146 9.22943 27.5454 9.22943 27.4839C9.22943 27.3081 8.91303 26.9214 8.72846 26.8775C8.64057 26.8511 8.456 26.8687 8.32416 26.9214Z" fill="white"/>
<path d="M35.1129 28.16C33.276 29.0125 33.1969 31.4559 34.9635 32.5018C35.3239 32.7039 35.4733 32.7391 36.1061 32.7391H36.8268L36.9235 33.0379C37.0465 33.3895 37.6354 34.0574 37.9869 34.242C38.444 34.4793 38.9362 34.1717 38.9362 33.6443C38.9362 33.4774 38.8219 33.2928 38.5494 33.0203C38.0836 32.5721 37.9782 32.1766 38.1803 31.702C38.4264 31.1131 39.0944 30.8758 39.7535 31.157C40.0787 31.2889 40.2809 31.2625 40.5446 31.0428C40.7467 30.867 40.7467 30.3045 40.5358 30.1199C40.2545 29.8563 39.6217 29.6981 39.0416 29.7244L38.4967 29.7508L38.2858 29.3113C37.7233 28.1248 36.2994 27.6063 35.1129 28.16ZM36.7125 29.4432C37.0553 29.6541 37.2047 29.909 37.2047 30.3221C37.2047 30.744 36.9674 31.1658 36.651 31.3328C35.7018 31.825 34.6295 30.8231 35.1129 29.8826C35.4205 29.285 36.1325 29.0828 36.7125 29.4432Z" fill="white"/>
<path d="M13.4737 32.9241C13.298 33.0999 13.2628 33.1965 13.3068 33.4251C13.3683 33.7327 13.6407 34.0139 13.878 34.0139C13.9659 34.0139 14.0978 34.0667 14.1857 34.1282C14.4669 34.3391 14.2736 34.6028 13.4737 35.095C11.9796 36.0002 11.4786 36.6506 11.4874 37.679C11.4962 38.426 11.8214 39.0852 12.4103 39.5598C13.7638 40.6321 15.6271 40.1838 16.2599 38.6282C16.4005 38.2854 16.5148 38.1448 16.7257 38.0481C17.0421 37.9075 17.1915 37.5823 17.1036 37.2395C17.0333 36.967 16.4005 36.5627 16.0402 36.5627C15.671 36.5627 15.504 36.7737 15.2403 37.5471C14.9679 38.3821 14.6778 38.7424 14.2208 38.8215C13.4298 38.9446 12.6036 38.1008 12.8321 37.3977C12.9464 37.0374 13.2364 36.7825 14.089 36.2815C15.4601 35.4729 15.8995 34.6379 15.4777 33.6975C15.2931 33.302 14.8888 32.9504 14.423 32.7922C13.9659 32.6428 13.7198 32.678 13.4737 32.9241Z" fill="white"/>
<path d="M31.2625 33.5476C30.3396 34.699 29.3025 35.3494 28.1248 35.5252C27.2898 35.6482 26.9998 35.9646 27.2107 36.5183C27.2986 36.7469 27.7469 36.9314 28.0721 36.8699L28.3621 36.8084L28.951 37.8279C29.2674 38.3816 29.5311 38.8738 29.5311 38.909C29.5311 38.9441 29.4432 39.1375 29.3377 39.3396C29.1004 39.7879 29.1707 40.1131 29.5398 40.3064C29.8914 40.4822 30.243 40.3504 30.4891 39.9549C31.0428 39.076 32.6248 38.1443 33.5828 38.1443C34.1981 38.1443 34.576 37.6609 34.3211 37.1775C34.1717 36.8875 34.0311 36.826 33.5389 36.826H33.1785L32.5809 35.8064L31.992 34.7869L32.1678 34.4969C32.2645 34.3387 32.3436 34.0926 32.3436 33.9344C32.3436 33.3367 31.6316 33.0818 31.2625 33.5476ZM31.2273 36.0965C31.7723 36.9754 31.8689 37.1951 31.7283 37.283C30.7791 37.8455 30.5594 37.9685 30.5418 37.951C30.4539 37.8367 29.7947 36.659 29.7771 36.5799C29.7508 36.492 30.7703 35.8064 30.9549 35.7801C30.99 35.7713 31.1131 35.9207 31.2273 36.0965Z" fill="white"/>
<path d="M21.727 36.0793C20.5141 36.3518 19.7846 37.0197 19.7055 37.9074C19.6264 38.8479 20.1977 39.5686 21.1206 39.6916C21.4809 39.7444 21.5688 39.7268 21.7534 39.551C22.1665 39.1643 21.938 38.4787 21.3667 38.3908C21.0854 38.3557 20.936 38.1096 21.059 37.8986C21.103 37.8195 21.3403 37.6525 21.5864 37.5295C22.184 37.2307 23.2915 37.2219 23.9594 37.5207C24.5219 37.7668 24.8471 37.7404 25.0757 37.424C25.726 36.5451 23.5288 35.6662 21.727 36.0793Z" fill="white"/>
<path d="M23.2295 38.6013C22.8428 39.0144 23.0801 39.6648 23.6338 39.7439C23.915 39.779 24.0645 40.0251 23.9414 40.2273C23.8975 40.3151 23.6602 40.4821 23.4141 40.6052C22.8252 40.904 21.7002 40.9128 21.0586 40.6228C20.4873 40.3591 20.1885 40.3679 19.96 40.6579C19.8545 40.7898 19.7754 40.9567 19.7754 41.0446C19.7754 41.7566 21.5859 42.3454 23.0186 42.0993C24.3809 41.8708 25.2158 41.1765 25.2949 40.2273C25.374 39.278 24.7852 38.5485 23.8535 38.4431C23.4756 38.3991 23.3965 38.4167 23.2295 38.6013Z" fill="white"/>
</g>
<defs>
<clipPath id="clip0_117_7650">
<rect width="45" height="45" fill="white"/>
</clipPath>
</defs>
</svg>
