<svg width="118" height="24" viewBox="0 0 118 24" fill="none" xmlns="http://www.w3.org/2000/svg">
<path d="M29.994 18.18C28.83 18.18 27.84 18.012 27.024 17.676C26.208 17.34 25.59 16.896 25.17 16.344C24.75 15.792 24.528 15.192 24.504 14.544C24.504 14.436 24.54 14.346 24.612 14.274C24.696 14.202 24.792 14.166 24.9 14.166H27.294C27.438 14.166 27.552 14.19 27.636 14.238C27.732 14.286 27.834 14.37 27.942 14.49C28.098 14.778 28.338 15.018 28.662 15.21C28.998 15.39 29.442 15.48 29.994 15.48C30.642 15.48 31.14 15.384 31.488 15.192C31.836 14.988 32.01 14.712 32.01 14.364C32.01 14.112 31.92 13.908 31.74 13.752C31.56 13.584 31.272 13.44 30.876 13.32C30.48 13.188 29.91 13.044 29.166 12.888C27.714 12.6 26.628 12.162 25.908 11.574C25.188 10.986 24.828 10.146 24.828 9.054C24.828 8.31 25.032 7.65 25.44 7.074C25.86 6.486 26.448 6.03 27.204 5.706C27.972 5.382 28.86 5.22 29.868 5.22C30.924 5.22 31.836 5.406 32.604 5.778C33.384 6.138 33.978 6.594 34.386 7.146C34.806 7.686 35.028 8.22 35.052 8.748C35.052 8.856 35.016 8.952 34.944 9.036C34.872 9.108 34.782 9.144 34.674 9.144H32.154C31.89 9.144 31.686 9.036 31.542 8.82C31.47 8.568 31.284 8.358 30.984 8.19C30.684 8.01 30.312 7.92 29.868 7.92C29.364 7.92 28.974 8.01 28.698 8.19C28.422 8.37 28.284 8.634 28.284 8.982C28.284 9.33 28.464 9.606 28.824 9.81C29.184 10.002 29.856 10.2 30.84 10.404C31.968 10.608 32.862 10.866 33.522 11.178C34.194 11.478 34.686 11.874 34.998 12.366C35.322 12.846 35.484 13.458 35.484 14.202C35.484 15.018 35.25 15.726 34.782 16.326C34.314 16.926 33.666 17.388 32.838 17.712C32.01 18.024 31.062 18.18 29.994 18.18ZM40.3292 18C40.1972 18 40.0832 17.958 39.9872 17.874C39.9032 17.79 39.8612 17.682 39.8612 17.55V8.334H36.6932C36.5612 8.334 36.4472 8.292 36.3512 8.208C36.2672 8.124 36.2252 8.016 36.2252 7.884V5.868C36.2252 5.736 36.2672 5.628 36.3512 5.544C36.4472 5.448 36.5612 5.4 36.6932 5.4H46.4672C46.5992 5.4 46.7072 5.448 46.7912 5.544C46.8872 5.628 46.9352 5.736 46.9352 5.868V7.884C46.9352 8.016 46.8872 8.124 46.7912 8.208C46.7072 8.292 46.5992 8.334 46.4672 8.334H43.2992V17.55C43.2992 17.682 43.2512 17.79 43.1552 17.874C43.0712 17.958 42.9632 18 42.8312 18H40.3292ZM48.965 18C48.845 18 48.737 17.958 48.641 17.874C48.557 17.778 48.515 17.67 48.515 17.55V5.868C48.515 5.736 48.557 5.628 48.641 5.544C48.725 5.448 48.833 5.4 48.965 5.4H53.915C55.499 5.4 56.735 5.76 57.623 6.48C58.523 7.2 58.973 8.214 58.973 9.522C58.973 10.362 58.775 11.076 58.379 11.664C57.995 12.252 57.461 12.708 56.777 13.032L59.207 17.424C59.243 17.496 59.261 17.562 59.261 17.622C59.261 17.718 59.225 17.808 59.153 17.892C59.081 17.964 58.991 18 58.883 18H56.345C55.997 18 55.751 17.838 55.607 17.514L53.627 13.608H51.899V17.55C51.899 17.682 51.851 17.79 51.755 17.874C51.671 17.958 51.563 18 51.431 18H48.965ZM53.897 10.962C54.413 10.962 54.803 10.836 55.067 10.584C55.343 10.32 55.481 9.96 55.481 9.504C55.481 9.048 55.343 8.682 55.067 8.406C54.803 8.13 54.413 7.992 53.897 7.992H51.899V10.962H53.897ZM66.1979 18.18C64.4939 18.18 63.1499 17.766 62.1659 16.938C61.1819 16.11 60.6599 14.892 60.5999 13.284C60.5879 12.948 60.5819 12.432 60.5819 11.736C60.5819 11.04 60.5879 10.518 60.5999 10.17C60.6479 8.586 61.1699 7.368 62.1659 6.516C63.1739 5.652 64.5179 5.22 66.1979 5.22C67.8659 5.22 69.1979 5.652 70.1939 6.516C71.2019 7.368 71.7299 8.586 71.7779 10.17C71.8019 10.866 71.8139 11.388 71.8139 11.736C71.8139 12.096 71.8019 12.612 71.7779 13.284C71.7179 14.892 71.1959 16.11 70.2119 16.938C69.2399 17.766 67.9019 18.18 66.1979 18.18ZM66.1979 15.48C66.8219 15.48 67.3199 15.294 67.6919 14.922C68.0639 14.538 68.2619 13.956 68.2859 13.176C68.3099 12.48 68.3219 11.982 68.3219 11.682C68.3219 11.382 68.3099 10.896 68.2859 10.224C68.2619 9.444 68.0639 8.868 67.6919 8.496C67.3199 8.112 66.8219 7.92 66.1979 7.92C65.5619 7.92 65.0579 8.112 64.6859 8.496C64.3139 8.868 64.1159 9.444 64.0919 10.224C64.0799 10.56 64.0739 11.046 64.0739 11.682C64.0739 12.33 64.0799 12.828 64.0919 13.176C64.1159 13.956 64.3139 14.538 64.6859 14.922C65.0579 15.294 65.5619 15.48 66.1979 15.48ZM74.2951 18C74.1751 18 74.0671 17.958 73.9711 17.874C73.8871 17.778 73.8451 17.67 73.8451 17.55V5.868C73.8451 5.736 73.8871 5.628 73.9711 5.544C74.0551 5.448 74.1631 5.4 74.2951 5.4H82.6651C82.7971 5.4 82.9051 5.448 82.9891 5.544C83.0851 5.628 83.1331 5.736 83.1331 5.868V7.776C83.1331 7.908 83.0851 8.016 82.9891 8.1C82.9051 8.184 82.7971 8.226 82.6651 8.226H77.1571V10.728H82.3051C82.4371 10.728 82.5451 10.776 82.6291 10.872C82.7251 10.956 82.7731 11.064 82.7731 11.196V13.104C82.7731 13.236 82.7251 13.344 82.6291 13.428C82.5451 13.512 82.4371 13.554 82.3051 13.554H77.1571V17.55C77.1571 17.67 77.1151 17.778 77.0311 17.874C76.9471 17.958 76.8391 18 76.7071 18H74.2951ZM83.6197 18C83.5237 18 83.4337 17.964 83.3497 17.892C83.2777 17.808 83.2417 17.718 83.2417 17.622C83.2417 17.55 83.2477 17.496 83.2597 17.46L87.4537 5.922C87.5737 5.574 87.8137 5.4 88.1737 5.4H90.9817C91.3417 5.4 91.5817 5.574 91.7017 5.922L95.8957 17.46C95.9077 17.496 95.9137 17.55 95.9137 17.622C95.9137 17.718 95.8717 17.808 95.7877 17.892C95.7157 17.964 95.6317 18 95.5357 18H93.1957C92.9077 18 92.7037 17.868 92.5837 17.604L91.9357 15.858H87.2197L86.5717 17.604C86.4517 17.868 86.2477 18 85.9597 18H83.6197ZM87.9757 13.158H91.1797L89.5777 8.568L87.9757 13.158ZM99.2335 18C99.1015 18 98.9875 17.958 98.8915 17.874C98.8075 17.79 98.7655 17.682 98.7655 17.55V8.334H95.5975C95.4655 8.334 95.3515 8.292 95.2555 8.208C95.1715 8.124 95.1295 8.016 95.1295 7.884V5.868C95.1295 5.736 95.1715 5.628 95.2555 5.544C95.3515 5.448 95.4655 5.4 95.5975 5.4H105.372C105.504 5.4 105.612 5.448 105.696 5.544C105.792 5.628 105.84 5.736 105.84 5.868V7.884C105.84 8.016 105.792 8.124 105.696 8.208C105.612 8.292 105.504 8.334 105.372 8.334H102.204V17.55C102.204 17.682 102.156 17.79 102.06 17.874C101.976 17.958 101.868 18 101.736 18H99.2335ZM107.869 18C107.749 18 107.641 17.958 107.545 17.874C107.461 17.778 107.419 17.67 107.419 17.55V5.868C107.419 5.736 107.461 5.628 107.545 5.544C107.629 5.448 107.737 5.4 107.869 5.4H116.365C116.497 5.4 116.605 5.448 116.689 5.544C116.785 5.628 116.833 5.736 116.833 5.868V7.65C116.833 7.782 116.785 7.89 116.689 7.974C116.605 8.058 116.497 8.1 116.365 8.1H110.677V10.386H115.969C116.101 10.386 116.209 10.434 116.293 10.53C116.389 10.614 116.437 10.722 116.437 10.854V12.492C116.437 12.624 116.389 12.738 116.293 12.834C116.209 12.918 116.101 12.96 115.969 12.96H110.677V15.3H116.509C116.641 15.3 116.749 15.348 116.833 15.444C116.929 15.528 116.977 15.636 116.977 15.768V17.55C116.977 17.682 116.929 17.79 116.833 17.874C116.749 17.958 116.641 18 116.509 18H107.869Z" fill="black"/>
<path d="M0 24L12 0L17 10L0 24Z" fill="url(#paint0_linear_117_516)"/>
<path d="M0 24L12 0L17 10L0 24Z" fill="url(#paint1_linear_117_516)"/>
<path d="M24 24L12 0L6.5 11L24 24Z" fill="url(#paint2_linear_117_516)"/>
<defs>
<linearGradient id="paint0_linear_117_516" x1="11.95" y1="9.89948e-07" x2="-3.47271" y2="21.5101" gradientUnits="userSpaceOnUse">
<stop stop-color="#9D70B1"/>
<stop offset="1" stop-color="#9D70B1"/>
</linearGradient>
<linearGradient id="paint1_linear_117_516" x1="10" y1="8" x2="-2.26349" y2="22.0201" gradientUnits="userSpaceOnUse">
<stop/>
<stop offset="0.615305" stop-color="#9D70B1" stop-opacity="0"/>
</linearGradient>
<linearGradient id="paint2_linear_117_516" x1="10.7" y1="2.58" x2="27.2521" y2="21.0922" gradientUnits="userSpaceOnUse">
<stop stop-color="#9D70B1"/>
<stop offset="1" stop-color="#6F5EA1"/>
</linearGradient>
</defs>
</svg>
