<svg width="21" height="21" viewBox="0 0 21 21" fill="none" xmlns="http://www.w3.org/2000/svg">
<path d="M10.0672 10.9328C9.40233 10.293 8.58692 9.97312 7.62097 9.97312C7.52061 9.97312 7.4328 9.97939 7.35753 9.99194C7.28226 9.99194 7.19444 9.99821 7.09409 10.0108C6.04032 10.1613 5.11201 10.638 4.30914 11.4409C3.50627 12.2437 3.02957 13.172 2.87903 14.2258C2.86649 14.3262 2.85394 14.4391 2.8414 14.5645C2.8414 14.6774 2.8414 14.759 2.8414 14.8091C2.8414 15.7375 3.15502 16.5278 3.78226 17.1801C4.42204 17.8324 5.21237 18.1586 6.15323 18.1586H6.37903C6.46685 18.1586 6.59857 18.1461 6.77419 18.121C7.81541 17.9955 8.74373 17.5188 9.55914 16.6909C10.3871 15.8504 10.8701 14.8593 11.0081 13.7177C11.0206 13.6299 11.0269 13.4919 11.0269 13.3038C11.0269 12.388 10.707 11.5977 10.0672 10.9328ZM21 2.31452L12.8522 10.4624C13.5296 11.5789 13.8683 12.7832 13.8683 14.0753C13.8683 15.9821 13.1909 17.6129 11.836 18.9677C10.4812 20.3226 8.85036 21 6.94355 21C5.02419 21 3.3871 20.3351 2.03226 19.0054C0.677419 17.6631 0 16.0197 0 14.0753C0 12.1559 0.677419 10.5188 2.03226 9.16398C3.3871 7.80914 5.02419 7.13172 6.94355 7.13172C8.22312 7.13172 9.42742 7.47043 10.5565 8.14785L18.6855 0L21 2.31452Z" fill="white"/>
</svg>
