<svg width="21" height="21" viewBox="0 0 21 21" xmlns="http://www.w3.org/2000/svg">
<g clip-path="url(#clip0_117_167)">
<path d="M20.5036 11.9462C20.2889 11.8925 20.0742 11.9462 19.8863 12.0804C19.1886 12.6708 18.3834 13.1538 17.4978 13.4759C16.6659 13.7979 15.7534 13.959 14.7873 13.959C12.6135 13.959 10.6275 13.0733 9.20514 11.651C7.78277 10.2286 6.89715 8.24264 6.89715 6.06883C6.89715 5.15637 7.05817 4.27074 7.32654 3.46563C7.62175 2.60684 8.05114 1.82856 8.61472 1.15763C8.85626 0.862426 8.80259 0.433031 8.50738 0.191497C8.31952 0.0573113 8.10482 0.00363704 7.89012 0.0573113C5.60896 0.674566 3.62302 2.04326 2.20065 3.86819C0.831952 5.66628 0 7.89376 0 10.3359C0 13.2612 1.18083 15.9181 3.11311 17.8503C5.04538 19.7826 7.70226 20.9634 10.6275 20.9634C13.0965 20.9634 15.3777 20.1047 17.2026 18.6823C19.0544 17.2331 20.3962 15.1666 20.9598 12.805C21.094 12.4024 20.8793 12.0267 20.5036 11.9462ZM16.3975 17.5551C14.8409 18.7896 12.855 19.5411 10.6812 19.5411C8.13166 19.5411 5.82366 18.4944 4.15976 16.8305C2.49585 15.1666 1.44921 12.8586 1.44921 10.3091C1.44921 8.18897 2.14697 6.25669 3.35464 4.70014C4.1866 3.62665 5.23324 2.74103 6.44092 2.12377C6.30673 2.41898 6.17254 2.71419 6.0652 3.03623C5.71631 4.00237 5.55529 5.02218 5.55529 6.09567C5.55529 8.6452 6.60194 10.98 8.26584 12.6439C9.92974 14.3078 12.2646 15.3545 14.8141 15.3545C15.9413 15.3545 17.0148 15.1666 18.0077 14.7909C18.3566 14.6567 18.7055 14.5225 19.0275 14.3615C18.3834 15.596 17.4978 16.6963 16.3975 17.5551Z" fill="#E5E5E5"/>
</g>
<defs>
<clipPath id="clip0_117_167">
<rect width="21" height="21" fill="white"/>
</clipPath>
</defs>
</svg>
