<svg width="45" height="45" viewBox="0 0 45 45" fill="none" xmlns="http://www.w3.org/2000/svg">
<path d="M20.4787 0.0879707C15.5129 0.597736 11.1183 2.52254 7.43572 5.78328C5.94158 7.11043 4.34197 9.03524 3.34002 10.7139C2.84783 11.5401 2.81267 11.7598 3.09392 12.0763C3.20818 12.1905 4.57928 13.0255 6.15252 13.9307C7.72576 14.836 9.01775 15.5831 9.03533 15.5919C9.04412 15.6095 8.92107 15.9171 8.75408 16.2774C8.10369 17.7013 7.47088 20.1886 7.47088 21.3136V21.6915L5.924 21.7266L4.37713 21.753L4.16619 21.9991C3.91131 22.2979 3.89373 22.6671 4.13982 22.9659L4.3156 23.2032L5.87127 23.2208L7.42693 23.2472L7.48846 23.9415C7.62908 25.4884 8.03338 27.044 8.71014 28.5997C8.89471 29.0391 9.03533 29.3995 9.02654 29.4083C9.01775 29.4171 7.96307 30.0235 6.67986 30.7618C5.39666 31.5001 4.26287 32.1593 4.14861 32.2296C3.94646 32.3526 3.93767 32.335 3.52459 31.4473C2.13592 28.4942 1.54705 25.8311 1.54705 22.5001C1.54705 20.3116 1.68767 19.169 2.17986 17.3145C2.56658 15.8643 2.57537 15.6007 2.25017 15.3194C1.97771 15.0821 1.75799 15.0645 1.40642 15.2491C1.12517 15.3897 1.01971 15.6534 0.668143 17.0948C-0.518381 21.8936 -0.0877168 27.0352 1.88982 31.5089C3.12908 34.3038 4.6408 36.4659 6.86443 38.628C8.71892 40.4298 10.3888 41.5987 12.674 42.7149C20.5051 46.5382 29.8215 45.4747 36.6681 39.9639C37.7404 39.1026 39.5949 37.1866 40.4123 36.1055C44.5607 30.586 45.9758 23.6075 44.2971 16.963C43.3127 13.087 41.4494 9.76473 38.6281 6.86434C35.0158 3.15535 30.7355 0.966877 25.6467 0.211018C24.5656 0.0528145 21.5246 -0.017498 20.4787 0.0879707ZM25.4885 1.71395C27.5099 2.01278 29.6017 2.64559 31.4474 3.51571L32.3439 3.94637L32.0451 4.45613C31.8869 4.73738 31.2277 5.87117 30.5861 6.98738C29.9445 8.09481 29.4084 9.01766 29.3996 9.03524C29.382 9.05281 29.2062 8.9825 28.9953 8.87703C27.8351 8.27938 25.9543 7.72567 24.5217 7.55867C24.0646 7.49715 23.5988 7.43563 23.4933 7.41805C23.2912 7.38289 23.2912 7.36531 23.2912 5.81844C23.2912 3.97274 23.2209 3.65633 22.8078 3.45418C22.5617 3.33113 22.4738 3.33113 22.2365 3.42781C22.0871 3.48934 21.9201 3.62117 21.8586 3.72664C21.7883 3.84969 21.7355 4.52645 21.7092 5.66903L21.6652 7.42684L20.9621 7.48836C19.7756 7.59383 18.4484 7.91024 18.2199 8.13875C17.9387 8.42 17.9474 8.9034 18.2375 9.18465C18.4924 9.44832 18.5539 9.44832 19.5822 9.2286C20.0305 9.13192 20.6896 9.02645 21.05 8.99129L21.7092 8.93856L21.6916 11.4786L21.6652 14.0186L21.4015 14.045C20.9621 14.0802 19.9426 14.3438 19.4064 14.5548L18.9055 14.7481L18.7297 14.4757C18.6418 14.3175 17.2883 11.9796 15.7326 9.27254C14.1681 6.56551 12.8322 4.26278 12.7707 4.15731C12.6476 3.97274 12.6652 3.95516 13.2453 3.66512C15.2844 2.6368 18.1056 1.83699 20.5226 1.5909C21.6564 1.46785 24.3019 1.53817 25.4885 1.71395ZM12.6125 6.87313C13.2892 8.04207 13.9484 9.18465 14.0803 9.40438L14.3088 9.80867L13.5969 10.3272C12.5949 11.0479 11.2678 12.3663 10.4767 13.4034C10.1164 13.8868 9.79119 14.2735 9.76482 14.2647C9.69451 14.2472 4.799 11.4171 4.75506 11.3731C4.73748 11.3555 4.86932 11.1095 5.05389 10.837C6.41619 8.77156 8.53435 6.62703 10.5822 5.22957C10.9689 4.9659 11.3117 4.74617 11.3381 4.74617C11.3644 4.74617 11.9357 5.70418 12.6125 6.87313ZM34.3742 5.19442C37.301 7.20711 39.7531 10.046 41.3088 13.2276C42.5832 15.838 43.1369 17.877 43.4621 21.1993L43.506 21.7091H40.5353H37.5558L37.5031 21.0147C37.3889 19.5645 36.8879 17.6661 36.2463 16.2686C36.0178 15.7677 35.9738 15.5919 36.0529 15.5391C36.1144 15.504 36.6945 15.17 37.3361 14.8009C38.4875 14.1329 38.8478 13.8341 38.8478 13.5264C38.8478 13.1134 38.4875 12.7442 38.0656 12.7442C37.9777 12.7442 37.301 13.0958 36.5539 13.5264C35.218 14.2999 35.2004 14.3087 35.0685 14.1241C34.3918 13.1749 34.0139 12.7354 33.0998 11.8214C32.5109 11.2413 31.7287 10.547 31.3596 10.2833C30.7267 9.84383 30.6828 9.7911 30.7883 9.6241C30.8498 9.52742 31.5178 8.39363 32.256 7.09285C33.0031 5.80086 33.6359 4.74617 33.6623 4.74617C33.6974 4.74617 34.0139 4.94832 34.3742 5.19442ZM24.7853 9.09676C26.1652 9.34285 28.5646 10.1602 28.5646 10.3888C28.5646 10.4327 28.3449 10.8634 28.0812 11.3292C27.8176 11.8038 27.5978 12.296 27.5978 12.4278C27.5978 12.9288 28.2658 13.2628 28.7404 13.0079C28.8283 12.9552 29.1271 12.5245 29.4084 12.0411C29.6808 11.5577 29.9181 11.1622 29.9445 11.1622C30.0763 11.1622 31.2013 12.0499 31.8693 12.6827C32.5549 13.3243 33.8381 14.8536 33.8381 15.0206C33.8381 15.0733 29.7863 17.4639 29.5402 17.5606C29.5051 17.5694 29.2678 17.3233 29.0217 17.0157C27.8263 15.5479 25.8928 14.4405 23.968 14.1153L23.3351 14.0098L23.3088 11.4874L23.2912 8.96492H23.6603C23.8713 8.96492 24.3722 9.02645 24.7853 9.09676ZM16.339 13.3155C17.0158 14.502 17.5783 15.4864 17.5783 15.4952C17.5783 15.5128 17.3234 15.7325 17.0158 15.9786C15.548 17.1739 14.4406 19.1075 14.1154 21.0323L14.0099 21.6651L11.4699 21.6915L8.93865 21.7091L9.00017 21.085C9.11443 19.8018 9.58904 18.0616 10.1515 16.8575L10.3801 16.3565L10.9777 16.7081C11.3029 16.8927 11.6808 17.0509 11.8039 17.0509C12.1642 17.0509 12.5158 16.6905 12.5158 16.3214C12.5158 15.9434 12.4103 15.8028 11.8303 15.4688C11.5842 15.3282 11.3293 15.17 11.259 15.1261C10.9689 14.9327 13.0519 12.5772 14.3703 11.6104C14.7131 11.3643 15.0119 11.1622 15.0383 11.1622C15.0646 11.1622 15.6535 12.129 16.339 13.3155ZM24.1262 15.6446C25.9719 16.1544 27.4045 17.1827 28.3976 18.7032C30.1994 21.4542 29.7863 25.1807 27.4133 27.4659C27.1144 27.7559 26.8947 27.9141 26.9299 27.8175C26.965 27.7208 27.0353 27.3429 27.0969 26.9737C27.3342 25.3389 26.4992 23.4845 25.1105 22.5616C24.381 22.0782 23.7834 21.8761 22.6672 21.753C21.3664 21.6124 20.8566 21.3927 20.1447 20.6632C19.5383 20.0479 19.2219 19.9688 18.8527 20.3468C18.3869 20.8038 18.6857 21.5245 19.6174 22.2188C20.5138 22.8868 21.05 23.0802 22.4211 23.2472C23.8273 23.4054 24.5568 23.8009 25.1281 24.6798C26.1388 26.253 25.55 28.3536 23.8801 29.1798C23.2033 29.505 22.5002 29.5929 21.5246 29.4434C16.4621 28.7052 13.8254 22.9483 16.6115 18.6944C17.7189 16.9893 19.4855 15.8468 21.4894 15.5216C21.9201 15.46 23.7482 15.5391 24.1262 15.6446ZM35.1389 17.5255C35.6574 18.879 36.0353 20.4962 36.0353 21.3575V21.6915L35.0773 21.7266C34.1984 21.753 34.093 21.7706 33.8908 21.9639C33.6008 22.2364 33.5832 22.711 33.8556 23.0011C34.0314 23.1856 34.1105 23.2032 35.0422 23.2032H36.0353V23.5284C36.0353 24.7325 35.2092 27.712 34.6818 28.4327C34.5588 28.6085 34.6379 28.6436 30.8322 26.4464L30.2433 26.1036L30.507 25.4005C31.1838 23.5372 31.1838 21.463 30.507 19.5997L30.2433 18.8966L30.964 18.4747C31.3596 18.2462 32.3351 17.6837 33.1349 17.2179C34.4006 16.4796 34.6027 16.3917 34.6906 16.5059C34.7521 16.585 34.9543 17.0421 35.1389 17.5255ZM14.0099 23.3966C14.0363 23.5108 14.0978 23.8536 14.1506 24.17C14.2121 24.4864 14.3703 25.0489 14.5021 25.418L14.757 26.1036L14.1681 26.4464C11.4523 28.0108 10.4767 28.5645 10.3976 28.5645C10.257 28.5645 9.58904 26.8067 9.30779 25.6817C9.16717 25.128 9.02654 24.3458 8.99139 23.9415L8.93865 23.2032H11.4523H13.9748L14.0099 23.3966ZM43.4533 23.2735C43.4797 23.3175 43.4533 23.7569 43.4094 24.2667C43.1721 26.877 42.5656 29.1358 41.4758 31.4473L41.0539 32.3438L40.5441 32.045C40.2629 31.8868 39.1291 31.2276 38.0129 30.586C36.9055 29.9444 35.9826 29.4171 35.965 29.3995C35.9562 29.3907 36.0705 29.1095 36.2199 28.7755C36.8703 27.3516 37.3713 25.4884 37.4943 24.0821C37.5207 23.7218 37.5558 23.3702 37.5822 23.3087C37.6086 23.2296 38.2678 23.2032 40.509 23.2032C42.0998 23.2032 43.4269 23.2384 43.4533 23.2735ZM15.9787 27.9669C17.2443 29.4962 19.0812 30.5596 21.0324 30.8848L21.6652 30.9903L21.6916 33.5304L21.7092 36.0616L21.0851 36.0001C19.8019 35.8858 18.0617 35.4112 16.8576 34.8487L16.3566 34.6202L16.9719 33.5743C17.6486 32.4141 17.7101 32.1153 17.3586 31.7725C17.0949 31.5001 16.717 31.4913 16.4094 31.7286C16.2863 31.8253 15.9435 32.3438 15.6447 32.8712C15.3459 33.4073 15.0734 33.838 15.0471 33.838C14.8801 33.838 13.6496 32.8096 12.8762 32.0362C12.05 31.21 11.2062 30.1641 11.2062 29.9708C11.2062 29.8917 15.3283 27.4395 15.4777 27.4307C15.5041 27.422 15.7326 27.668 15.9787 27.9669ZM31.6232 28.6261C32.7658 29.2852 33.7414 29.8565 33.7853 29.8917C33.9084 30.0059 32.9328 31.2452 32.0012 32.168C31.2013 32.9591 30.1555 33.794 29.9709 33.794C29.9094 33.794 27.4221 29.6104 27.4221 29.505C27.4221 29.4874 27.6769 29.2677 27.9846 29.0128C28.2922 28.7579 28.758 28.2921 29.0129 27.9845C29.2678 27.6768 29.4875 27.422 29.5051 27.422C29.5226 27.422 30.4719 27.9581 31.6232 28.6261ZM27.2902 32.2999C27.9055 33.3634 28.4592 34.3214 28.5295 34.4268C28.6525 34.6202 28.6349 34.6378 28.0988 34.8751C27.7912 35.0157 27.2023 35.2442 26.798 35.3761C25.9543 35.6485 25.6642 35.8946 25.6642 36.3341C25.6642 36.6241 25.8928 36.9141 26.218 37.0284C26.4113 37.0987 27.5539 36.7471 28.5998 36.2901C29.0392 36.1055 29.3996 35.9649 29.4084 35.9737C29.4172 35.9825 29.7072 36.4835 30.0588 37.0899C30.7795 38.3468 30.8762 38.4698 31.2629 38.5489C31.5002 38.5929 31.5881 38.5577 31.8166 38.338C31.9836 38.171 32.0803 37.9776 32.0803 37.8282C32.0803 37.6348 31.3859 36.3077 30.7883 35.3673C30.6828 35.2003 30.718 35.1563 31.3947 34.6729C32.3264 34.0138 33.9172 32.4317 34.6291 31.4649C34.9367 31.0518 35.2092 30.7266 35.2443 30.7354C35.3146 30.753 40.1926 33.5743 40.2453 33.627C40.3156 33.6886 39.3224 35.0684 38.549 35.9913C35.5344 39.5948 31.3068 42.1173 26.7013 43.0577C25.9631 43.2071 25.0402 43.3302 23.7482 43.4532L23.2912 43.4971L23.3088 37.2481L23.3351 30.9903L24.0031 30.8761C24.3722 30.8145 24.9875 30.6563 25.3654 30.5157C25.7521 30.3751 26.0861 30.2784 26.1213 30.3136C26.1476 30.3399 26.675 31.2364 27.2902 32.2999ZM10.4152 31.5089C11.0129 32.3438 12.6564 33.9874 13.4387 34.5411C13.7463 34.7608 14.0627 34.9981 14.1506 35.0684C14.3176 35.2003 14.2472 35.3321 11.426 40.1661C11.3644 40.2628 11.2678 40.2364 10.881 39.9727C8.7365 38.5401 6.60076 36.422 5.14178 34.2862C4.78142 33.7677 4.72869 33.6358 4.83416 33.5743C8.03338 31.7022 9.80877 30.7003 9.85271 30.7442C9.87908 30.7794 10.134 31.1221 10.4152 31.5089ZM16.1808 36.2022C17.6574 36.8702 19.5998 37.3888 21.0148 37.503L21.7092 37.5557V40.5264V43.4971L21.2521 43.4532C17.9562 43.1456 15.5568 42.504 13.175 41.2999L12.6564 41.045L12.8937 40.6231C13.0344 40.3946 13.6935 39.2432 14.3703 38.0743C15.0471 36.9054 15.6008 35.9473 15.6096 35.9473C15.6183 35.9473 15.8732 36.0616 16.1808 36.2022Z" fill="white"/>
<path d="M21.9289 18.0617C21.6125 18.3781 21.6301 18.8352 21.9728 19.1779C22.2101 19.4065 22.2892 19.4416 22.5705 19.3977C23.5724 19.2307 23.5109 17.842 22.5002 17.842C22.2365 17.842 22.0871 17.8947 21.9289 18.0617Z" fill="white"/>
<path d="M22.2807 25.55C21.5688 25.717 21.4282 26.7892 22.0698 27.1144C22.5444 27.3693 23.0981 27.1847 23.2915 26.7189C23.5463 26.0949 22.9399 25.4006 22.2807 25.55Z" fill="white"/>
</svg>
