<svg width="24" height="24" viewBox="0 0 24 24" fill="none" xmlns="http://www.w3.org/2000/svg">
<path d="M9.78672 10.1359L3.20813 13.6772C2.63065 13.9881 1.9153 13.6682 1.76189 13.0306L0.394158 7.34594C0.216572 6.60784 0.893878 5.94881 1.62684 6.14652L9.57315 8.28992C10.4465 8.52548 10.5832 9.7072 9.78672 10.1359Z" fill="#9D70B1"/>
<path d="M14.3016 10.0391L20.8084 13.4288C21.3823 13.7277 22.0848 13.4112 22.2409 12.7832L23.5937 7.34186C23.7768 6.60537 23.105 5.94133 22.3707 6.13301L14.511 8.18465C13.6256 8.41578 13.49 9.61631 14.3016 10.0391Z" fill="#8A599F"/>
<path d="M22.2452 13.0013L21.0246 18.2275C20.9189 18.6799 20.5154 19 20.0508 19H12V1.49323C12.2722 1.4931 12.5444 1.6032 12.7431 1.82353L22.0141 12.1042C22.2334 12.3473 22.3197 12.6825 22.2452 13.0013Z" fill="#9D70B1"/>
<path d="M1.98687 12.1042L11.2578 1.82353C11.4563 1.60345 11.7281 1.49335 12 1.49323V19H3.95018C3.48552 19 3.08207 18.6799 2.97639 18.2275L1.75572 13.0013C1.68124 12.6824 1.76759 12.3473 1.98687 12.1042Z" fill="#C499D7"/>
<rect x="4" y="21" width="16" height="2" rx="1" fill="#9D70B1"/>
</svg>
