<svg width="24" height="24" viewBox="0 0 24 24" fill="none" xmlns="http://www.w3.org/2000/svg">

<path d="M9.78672 10.1359L3.20813 13.6772C2.63065 13.9881 1.9153 13.6682 1.76189 13.0306L0.394158 7.34594C0.216572 6.60784 0.893878 5.94881 1.62684 6.14652L9.57315 8.28992C10.4465 8.52548 10.5832 9.7072 9.78672 10.1359Z" fill="#9D70B1"/>
<path d="M14.3016 10.0391L20.8084 13.4288C21.3823 13.7277 22.0848 13.4112 22.2409 12.7832L23.5937 7.34186C23.7768 6.60537 23.105 5.94133 22.3707 6.13301L14.511 8.18465C13.6256 8.41578 13.49 9.61631 14.3016 10.0391Z" fill="#8A599F"/>
<path d="M20.0506 19H3.95006C3.4854 19 3.08196 18.6799 2.97627 18.2274L1.7556 13.0013C1.68113 12.6824 1.76747 12.3473 1.98676 12.1041L11.2577 1.82351C11.6549 1.38311 12.3458 1.38311 12.743 1.82351L22.014 12.1041C22.2332 12.3473 22.3196 12.6824 22.2451 13.0013L21.0244 18.2274C20.9188 18.6799 20.5153 19 20.0506 19Z" fill="url(#paint0_linear_117_3149)"/>
<rect x="4" y="21" width="16" height="2" rx="1" fill="#9D70B1"/>
<defs>
<linearGradient id="paint0_linear_117_3149" x1="0%" y1="0%" x2="50%" y2="0%" gradientUnits="userSpaceOnUse" spreadMethod="repeat">
<stop offset="0%" stop-color="#9D70B1"/>
<stop offset="100%" stop-color="#C499D7"/>
</linearGradient>
</defs>
</svg>

