<svg width="20" height="18" viewBox="0 0 20 18" xmlns="http://www.w3.org/2000/svg">
<path d="M0.319702 8.22288L7.5424 1.00001C7.74857 0.793834 8.02337 0.680664 8.31637 0.680664C8.6097 0.680664 8.88433 0.793996 9.09051 1.00001L9.74628 1.65594C9.95229 1.86179 10.0658 2.13675 10.0658 2.42992C10.0658 2.72292 9.95229 3.00715 9.74628 3.213L5.53266 7.43589H18.9195C19.5231 7.43589 20 7.90841 20 8.51215V9.43945C20 10.0432 19.5231 10.5633 18.9195 10.5633H5.48486L9.74612 14.8098C9.95213 15.016 10.0656 15.2835 10.0656 15.5766C10.0656 15.8695 9.95213 16.1409 9.74612 16.3469L9.09035 17.0007C8.88417 17.2069 8.60954 17.3192 8.31621 17.3192C8.0232 17.3192 7.74841 17.2054 7.54223 16.9992L0.31954 9.77652C0.112875 9.5697 -0.000782013 9.2936 3.05176e-05 9.00011C-0.000619888 8.70564 0.112875 8.42938 0.319702 8.22288Z"/>
</svg>
