<svg width="13" height="21" viewBox="0 0 13 21" fill="none" xmlns="http://www.w3.org/2000/svg">
<path d="M7.80472 16.1308L7.52134 15.5082C7.23797 14.8338 6.98214 14.1186 6.75386 13.3626L5.43143 8.94918L5.02997 8.9603C4.72298 8.9603 4.45141 8.94177 4.21526 8.90471C3.98698 8.86024 3.76658 8.80095 3.55404 8.72684V14.3076C3.55404 14.6411 3.68392 14.919 3.94369 15.1413C4.14835 15.3192 4.48289 15.4082 4.94732 15.4082H5.40781V16.3753H0V15.4082C0.377838 15.4082 0.696639 15.3229 0.956403 15.1525C1.3185 14.9005 1.49955 14.6188 1.49955 14.3076V2.10111C1.49955 1.74537 1.31456 1.46003 0.944596 1.2451C0.684832 1.08947 0.369967 1.01165 0 1.01165V0H5.396C6.07296 0 6.73812 0.170461 7.39146 0.511382C8.05268 0.852303 8.5604 1.26363 8.91462 1.74537C9.47351 2.53097 9.75295 3.36474 9.75295 4.24669C9.75295 5.15828 9.48138 6.03282 8.93824 6.8703C8.43445 7.58179 7.78111 8.15617 6.9782 8.59344L8.13533 12.6067L8.43052 13.5961C8.54072 13.9222 8.66273 14.2409 8.79655 14.5521L10.6857 11.5839H12.6576L9.68211 16.2753C10.2252 17.0757 10.7723 17.4759 11.3233 17.4759C11.8901 17.4759 12.4214 17.1461 12.9173 16.4865H13V18.8211C12.4805 19.0138 11.9924 19.1101 11.5359 19.1101C11.4572 19.1101 11.3863 19.1064 11.3233 19.099C11.2604 19.099 11.1305 19.0842 10.9337 19.0545C10.1308 18.8989 9.41841 18.4394 8.79655 17.676L6.68302 21H4.71117L7.80472 16.1308ZM3.55404 1.12282V7.43727C3.64063 7.44468 3.72328 7.45209 3.802 7.4595C3.88859 7.4595 3.97517 7.4595 4.06176 7.4595C4.35301 7.4595 4.60884 7.43356 4.82925 7.38168C5.46685 7.27051 6.05329 6.96294 6.58856 6.45897C7.30487 5.78454 7.66303 4.98041 7.66303 4.04659C7.66303 3.04606 7.19467 2.27528 6.25795 1.73425C5.5495 1.32663 4.6482 1.12282 3.55404 1.12282Z" fill="white"/>
</svg>
