<svg width="21" height="21" viewBox="0 0 21 21" fill="none" xmlns="http://www.w3.org/2000/svg">
<path d="M6.10302 2.05278C6.21403 2.32211 6.47417 2.48487 6.74837 2.48487C6.83696 2.48487 6.92697 2.4679 7.01387 2.43206C7.37017 2.2852 7.53993 1.87736 7.39315 1.52121L7.37222 1.47044C7.22529 1.11408 6.81745 0.944309 6.46137 1.09117C6.10507 1.23803 5.93531 1.64586 6.0821 2.00202L6.10302 2.05278Z" fill="#E5E5E5"/>
<path d="M13.9868 2.43201C14.0737 2.46785 14.1637 2.48482 14.2523 2.48482C14.5265 2.48482 14.7866 2.32206 14.8976 2.05273L14.9185 2.00197C15.0653 1.64574 14.8955 1.23791 14.5393 1.09112C14.1832 0.944331 13.7752 1.11417 13.6284 1.47039L13.6075 1.52116C13.4607 1.87738 13.6305 2.28522 13.9868 2.43201Z" fill="#E5E5E5"/>
<path d="M14.8976 18.9475C14.7507 18.5911 14.3428 18.4214 13.9868 18.5682C13.6305 18.715 13.4607 19.1229 13.6075 19.479L13.6284 19.5298C13.7394 19.7991 13.9996 19.9619 14.2738 19.9619C14.3624 19.9619 14.4524 19.9449 14.5393 19.9091C14.8956 19.7622 15.0653 19.3544 14.9185 18.9982L14.8976 18.9475Z" fill="#E5E5E5"/>
<path d="M7.01386 18.5681C6.65778 18.4214 6.2498 18.5912 6.10301 18.9474L6.08209 18.9982C5.9353 19.3544 6.10514 19.7622 6.46136 19.909C6.54833 19.9449 6.63827 19.9619 6.72686 19.9619C7.00106 19.9619 7.26119 19.7991 7.3722 19.5298L7.39313 19.479C7.53992 19.1228 7.37015 18.7149 7.01386 18.5681Z" fill="#E5E5E5"/>
<path d="M20.3023 9.80233H16.6036C16.5654 9.46633 16.5005 9.13839 16.4102 8.82092L17.6514 8.30985C18.0077 8.16313 18.1776 7.75536 18.0309 7.39907C17.8842 7.04271 17.4765 6.87301 17.1201 7.01959L15.877 7.53143C15.7105 7.23121 15.5198 6.94633 15.3072 6.67941L17.9246 4.06205C18.197 3.78962 18.197 3.34784 17.9246 3.07533C17.6521 2.80297 17.2105 2.80297 16.9379 3.07533L14.3205 5.6927C14.0603 5.48545 13.7829 5.299 13.4909 5.13552L14.0079 3.89455C14.1561 3.53889 13.988 3.13041 13.6323 2.98228C13.2768 2.83387 12.8681 3.00222 12.72 3.35795L12.2037 4.59709C11.8785 4.50312 11.5424 4.43552 11.1976 4.39642V0.697667C11.1976 0.312384 10.8852 0 10.4999 0C10.1146 0 9.80226 0.312384 9.80226 0.697667V4.39642C9.46626 4.43461 9.13832 4.49952 8.82085 4.58981L8.30978 3.34862C8.16306 2.99232 7.75529 2.82256 7.399 2.96913C7.04271 3.11585 6.8728 3.52362 7.01952 3.87991L7.53136 5.12301C7.23114 5.28945 6.94626 5.48015 6.67934 5.6927L4.06212 3.0754C3.78962 2.80304 3.34798 2.80304 3.0754 3.0754C2.80297 3.34784 2.80297 3.78962 3.0754 4.06212L5.6927 6.67941C5.48546 6.93962 5.29893 7.21707 5.13553 7.50909L3.89447 6.99201C3.53903 6.84367 3.13027 7.01195 2.98221 7.36768C2.83401 7.72333 3.00215 8.13181 3.35788 8.27994L4.59709 8.79624C4.50312 9.12135 4.43553 9.45757 4.39642 9.80226H0.697667C0.312384 9.80233 0 10.1147 0 10.5C0 10.8853 0.312384 11.1977 0.697667 11.1977H4.39642C4.43461 11.5337 4.49952 11.8616 4.58981 12.1791L3.34862 12.6902C2.99232 12.8369 2.82241 13.2446 2.96913 13.6009C3.08007 13.8703 3.34027 14.0332 3.61455 14.0332C3.70307 14.0332 3.79301 14.0162 3.87991 13.9804L5.12301 13.4686C5.28945 13.7688 5.48015 14.0537 5.6927 14.3206L3.0754 16.9379C2.80297 17.2104 2.80297 17.6522 3.0754 17.9247C3.21166 18.0608 3.39019 18.129 3.56873 18.129C3.74733 18.129 3.9258 18.0608 4.06205 17.9247L6.67941 15.3073C6.93962 15.5145 7.217 15.701 7.50895 15.8645L6.99187 17.1055C6.84367 17.4611 7.01181 17.8696 7.36754 18.0177C7.45521 18.0543 7.54614 18.0716 7.63559 18.0716C7.9088 18.0716 8.16822 17.91 8.27987 17.642L8.79617 16.4028C9.12135 16.4968 9.45757 16.5644 9.80226 16.6036V20.3023C9.80226 20.6876 10.1146 21 10.4999 21C10.8852 21 11.1976 20.6876 11.1976 20.3023V16.6036C11.5336 16.5654 11.8615 16.5005 12.179 16.4102L12.6901 17.6514C12.801 17.9208 13.0612 18.0836 13.3355 18.0836C13.424 18.0836 13.514 18.0666 13.6009 18.0309C13.9572 17.8841 14.1271 17.4764 13.9803 17.1201L13.4685 15.877C13.7687 15.7105 14.0536 15.5198 14.3205 15.3073L16.9379 17.9247C17.0741 18.0608 17.2527 18.129 17.4312 18.129C17.6097 18.129 17.7883 18.0608 17.9245 17.9247C18.197 17.6522 18.197 17.2105 17.9245 16.9379L15.3072 14.3206C15.5144 14.0604 15.7009 13.783 15.8643 13.491L17.1052 14.0081C17.193 14.0446 17.2838 14.0619 17.3734 14.0619C17.6466 14.0619 17.9059 13.9003 18.0176 13.6325C18.1659 13.2767 17.9977 12.8683 17.6421 12.7201L16.4028 12.2038C16.4968 11.8786 16.5644 11.5424 16.6035 11.1977H20.3023C20.6875 11.1977 20.9999 10.8854 20.9999 10.5001C20.9999 10.1148 20.6876 9.80233 20.3023 9.80233ZM10.5 15.248C7.88186 15.248 5.75195 13.1181 5.75195 10.5C5.75195 7.88193 7.88193 5.75195 10.5 5.75195C13.1181 5.75195 15.2481 7.88193 15.2481 10.5C15.2481 13.1181 13.1181 15.248 10.5 15.248Z" fill="#E5E5E5"/>
<path d="M1.52093 13.607L1.47016 13.628C1.11386 13.7748 0.944096 14.1827 1.09088 14.5388C1.20189 14.8081 1.46203 14.9709 1.73623 14.9709C1.82482 14.9709 1.91483 14.9539 2.00173 14.9181L2.0525 14.8972C2.4088 14.7503 2.57856 14.3425 2.43178 13.9863C2.28499 13.63 1.87701 13.4602 1.52093 13.607Z" fill="#E5E5E5"/>
<path d="M1.47015 7.37222L1.52092 7.39315C1.60788 7.429 1.69782 7.44597 1.78642 7.44597C2.06062 7.44597 2.32075 7.2832 2.43176 7.01388C2.57855 6.65765 2.40871 6.24981 2.05249 6.10303L2.00172 6.0821C1.64564 5.93531 1.23766 6.10508 1.09087 6.46137C0.944087 6.81752 1.11393 7.22536 1.47015 7.37222Z" fill="#E5E5E5"/>
<path d="M19.2138 7.44576C19.3024 7.44576 19.3923 7.42879 19.4793 7.39294L19.53 7.37201C19.8863 7.22516 20.0561 6.81732 19.9093 6.46116C19.7624 6.1048 19.3545 5.93503 18.9985 6.08189L18.9477 6.10282C18.5914 6.24968 18.4216 6.65752 18.5684 7.01367C18.6794 7.28299 18.9395 7.44576 19.2138 7.44576Z" fill="#E5E5E5"/>
<path d="M19.53 13.6279L19.4793 13.607C19.1231 13.4602 18.7152 13.63 18.5684 13.9863C18.4216 14.3425 18.5915 14.7503 18.9477 14.8971L18.9985 14.918C19.0854 14.9539 19.1754 14.9709 19.264 14.9709C19.5382 14.9709 19.7983 14.8081 19.9093 14.5388C20.0561 14.1826 19.8863 13.7748 19.53 13.6279Z" fill="#E5E5E5"/>
</svg>
