<svg width="20" height="20" viewBox="0 0 20 20" fill="none" xmlns="http://www.w3.org/2000/svg">
<path d="M6.6872 1.09375C5.08564 1.23047 3.6247 2.16016 2.80439 3.57031C2.59735 3.92578 2.39814 4.41797 2.27704 4.88281C2.14423 5.39062 2.10907 6.33594 2.20282 6.875C2.3747 7.85547 2.82001 8.75391 3.49579 9.48438C3.63642 9.63281 3.7497 9.76562 3.7497 9.77734C3.7497 9.78516 3.61298 9.875 3.44501 9.97266C1.82782 10.9102 0.60126 12.6133 0.179385 14.4961C0.0231353 15.1953 -0.00811475 15.6758 0.00751025 17.1367L0.019229 18.4688L0.140323 18.6211C0.206729 18.7031 0.32001 18.8047 0.394229 18.8477C0.527041 18.9258 0.597354 18.9258 9.9997 18.9258C19.402 18.9258 19.4724 18.9258 19.6052 18.8477C19.6794 18.8047 19.7927 18.7031 19.8591 18.6211L19.9802 18.4688L19.9919 17.1367C20.0075 15.6758 19.9763 15.1953 19.82 14.4961C19.3981 12.6133 18.1716 10.9102 16.5544 9.97266C16.3864 9.875 16.2497 9.78516 16.2497 9.77344C16.2497 9.76562 16.3513 9.64844 16.4763 9.51562C17.1208 8.82422 17.5583 8 17.7614 7.08984C17.8552 6.66797 17.8708 5.72266 17.7966 5.25391C17.3786 2.71094 15.0856 0.90625 12.5114 1.09766C11.6716 1.16016 10.8122 1.44531 10.195 1.85938C10.1208 1.91016 10.0388 1.95312 10.0114 1.95312C9.98798 1.95312 9.82001 1.86719 9.64423 1.75781C8.80829 1.25 7.72235 1.00781 6.6872 1.09375ZM7.70673 2.55859C9.07782 2.79688 10.1638 3.75781 10.57 5.09766C10.6677 5.41797 10.6755 5.50781 10.6794 6.07422C10.6794 6.64844 10.6716 6.72656 10.57 7.05078C9.78095 9.62891 6.67548 10.4883 4.71454 8.67188C4.0036 8.01562 3.59345 7.08203 3.58954 6.10938C3.58564 5.63672 3.63642 5.30078 3.75751 4.94141C4.2497 3.5 5.58173 2.53125 7.11298 2.50391C7.25751 2.50391 7.52314 2.52734 7.70673 2.55859ZM13.7302 2.61719C15.0427 2.94922 16.07 4.02734 16.3513 5.36719C16.4294 5.73047 16.4255 6.44141 16.3434 6.80078C16.1403 7.69141 15.6716 8.41797 14.9489 8.95703C14.6755 9.16016 14.0895 9.4375 13.7302 9.53516C13.2888 9.65625 12.4567 9.65625 12.0231 9.53906C11.7341 9.46094 11.1872 9.24219 11.1208 9.17969C11.1013 9.16406 11.1833 9.00391 11.3005 8.82422C11.8747 7.94141 12.1208 7.125 12.1208 6.09375C12.1247 5.05859 11.8708 4.19922 11.3122 3.33984C11.1911 3.15625 11.0934 2.99609 11.0934 2.98828C11.0934 2.90234 11.9724 2.59766 12.3825 2.53906C12.7458 2.48828 13.3669 2.52344 13.7302 2.61719ZM5.52314 10.7969C6.02314 10.9688 6.5661 11.0586 7.1247 11.0586C7.71064 11.0586 8.13251 10.9922 8.69501 10.8164L9.08954 10.6914L9.47626 10.875C10.2224 11.2305 10.7497 11.6055 11.2927 12.1758C11.9919 12.9102 12.4489 13.7578 12.7028 14.8047C12.8161 15.2734 12.82 15.332 12.8395 16.3984L12.8591 17.5H7.15204H1.44501V16.5195C1.44501 15.375 1.49189 14.9805 1.71845 14.2969C2.15985 12.9453 3.10517 11.793 4.33173 11.1055C4.59345 10.957 5.14814 10.7031 5.21064 10.7031C5.23017 10.7031 5.37079 10.7461 5.52314 10.7969ZM15.3044 10.918C15.902 11.2031 16.4138 11.5625 16.8981 12.0469C17.5622 12.7148 17.9919 13.4102 18.2809 14.2969C18.5075 14.9805 18.5544 15.375 18.5544 16.5195V17.5H16.4333H14.3083L14.2849 16.4375C14.2614 15.3555 14.2184 14.9531 14.0583 14.3164C13.7849 13.2148 13.2263 12.168 12.445 11.2969C12.3239 11.1641 12.2263 11.0469 12.2263 11.043C12.2263 11.0391 12.4724 11.0391 12.7731 11.0469C13.3825 11.0625 13.9294 10.9805 14.4333 10.8047C14.5895 10.7461 14.7536 10.7148 14.82 10.7227C14.8825 10.7344 15.1013 10.8203 15.3044 10.918Z" fill="#A0A0A0"/>
</svg>
