<svg width="40" height="40" viewBox="0 0 40 40" fill="none" xmlns="http://www.w3.org/2000/svg">
<path d="M6 2C9.43176 5.89189 8.94151 11.1459 8.94151 30.2162M8.96572 30.2162C8.96572 11.1459 10.9025 2.48649 14.3343 2.48649C17.766 2.48649 17.766 11.1459 17.766 30.2162C17.766 11.1459 19.7028 2.48649 23.1346 2.48649C25.617 2.48649 26.3037 7.01773 26.4937 16.7432M26.5664 30.2162C26.5664 24.9409 26.5664 20.4622 26.4937 16.7432M19.2368 35.0811C21.3785 34.5751 24.0739 33.5227 26.5664 31.8295M26.4937 16.7432C27.3303 14.82 28.4808 12.8816 29.5056 11.5407C30.5779 10.1376 32.3616 10.328 33.0476 11.9553C34.8607 16.2561 34.769 25.3418 26.5664 31.8295M26.5906 30.2162L26.5664 31.8295M26.5664 31.8295C26.9392 35.0661 28.372 37.2917 29.0418 38" stroke="black" stroke-width="3"/>
</svg>
